<svg version="1.1" id="Layer_1" xmlns="http://www.w3.org/2000/svg" xmlns:xlink="http://www.w3.org/1999/xlink" x="0px" y="0px"
	 width="100%" viewBox="0 0 248 272" xml:space="preserve">
<path fill="#128288" opacity="1.000000" stroke="none"
	d="
M153.000000,273.000000 
	C142.312439,273.000000 131.624878,273.000000 120.315903,272.635437 
	C117.739197,271.885132 115.792809,271.445251 113.827309,271.121429 
	C59.418663,262.156342 14.938738,219.347504 3.815138,165.282059 
	C3.034714,161.488876 1.945582,157.759201 1.000000,154.000000 
	C1.000000,142.979111 1.000000,131.958206 1.364554,120.315903 
	C1.842074,119.210800 1.992251,118.732468 2.062732,118.242668 
	C10.663356,58.473495 55.766033,14.284870 110.177650,3.478005 
	C113.485344,2.821053 116.727402,1.833648 120.000000,1.000000 
	C130.687561,1.000000 141.375122,1.000000 152.692032,1.368839 
	C184.181961,5.821789 210.759918,18.661102 232.741669,40.144188 
	C222.103745,50.781090 211.654602,61.229225 201.198990,71.683830 
	C161.098770,32.735123 101.171188,40.330818 69.269791,75.507011 
	C38.348152,109.602867 37.588894,161.981308 68.054802,196.838654 
	C83.628258,214.656906 103.311897,225.142853 126.762779,227.651871 
	C155.739929,230.752167 180.751007,221.388779 200.863525,202.177170 
	C211.856766,212.640915 222.536972,222.806671 233.426804,233.171982 
	C214.338181,251.983932 192.088028,264.213928 166.281021,269.997864 
	C161.852203,270.990479 157.426926,271.998901 153.000000,273.000000 
z"/>
<path fill="#FDFEFE" opacity="1.000000" stroke="none" 
	d="
M153.468658,273.000000 
	C157.426926,271.998901 161.852203,270.990479 166.281021,269.997864 
	C192.088028,264.213928 214.338181,251.983932 233.426804,233.171982 
	C222.536972,222.806671 211.856766,212.640915 200.863525,202.177170 
	C180.751007,221.388779 155.739929,230.752167 126.762779,227.651871 
	C103.311897,225.142853 83.628258,214.656906 68.054802,196.838654 
	C37.588894,161.981308 38.348152,109.602867 69.269791,75.507011 
	C101.171188,40.330818 161.098770,32.735123 201.198990,71.683830 
	C211.654602,61.229225 222.103745,50.781090 232.741669,40.144188 
	C210.759918,18.661102 184.181961,5.821789 153.160690,1.368839 
	C184.969803,1.000000 216.939621,1.000000 248.909424,1.000000 
	C248.939621,1.136318 248.996262,1.272635 248.996277,1.408954 
	C249.000046,91.823570 249.000000,182.238190 249.000000,273.000000 
	C217.313278,273.000000 185.625305,273.000000 153.468658,273.000000 
M118.116699,122.537064 
	C118.524277,127.525276 121.338150,123.701294 122.836327,124.530510 
	C121.746002,125.685753 120.655685,126.841003 119.565361,127.996246 
	C119.854187,128.037842 120.143021,128.079422 120.431854,128.121017 
	C119.902489,130.289658 119.373123,132.458313 118.062088,134.443222 
	C114.084023,134.753052 112.688553,138.160553 114.483322,142.580994 
	C115.014534,143.889328 114.812592,145.495346 114.438095,147.351562 
	C113.350395,148.915161 112.262703,150.478760 110.698112,152.470154 
	C109.800194,153.647232 108.902275,154.824295 107.517555,156.372864 
	C107.030792,157.251221 106.544029,158.129578 105.780319,159.811340 
	C105.895439,161.212051 106.010567,162.612778 105.728081,164.658768 
	C105.777557,166.354202 105.225784,168.401718 105.977699,169.685822 
	C109.795471,176.205673 112.134796,178.876587 122.838181,177.039856 
	C127.155289,176.045029 129.979034,178.712860 132.898834,181.538651 
	C132.898834,181.538651 132.860428,181.933090 132.315948,182.312515 
	C132.785202,183.910172 133.254440,185.507843 133.843079,187.737808 
	C134.207520,188.498291 134.571976,189.258774 134.922028,190.764832 
	C135.330948,192.181473 135.739868,193.598114 135.865234,195.597992 
	C135.514847,196.373718 135.164459,197.149445 134.370956,198.381714 
	C134.345016,199.619751 134.319092,200.857773 134.290695,202.904358 
	C134.579834,203.939209 134.868958,204.974060 135.122574,206.706680 
	C135.486496,207.809235 135.850418,208.911789 136.232666,210.652267 
	C136.558563,211.437576 136.884476,212.222870 137.255798,213.731674 
	C138.634064,216.484497 138.494873,220.538055 143.479568,219.946167 
	C148.390289,219.363052 153.794189,220.038559 155.713776,212.976059 
	C156.545883,211.293884 157.377991,209.611710 158.279190,207.232224 
	C158.671021,206.195908 159.062851,205.159576 160.126495,203.963928 
	C162.741714,202.835907 164.895767,201.408249 164.202087,197.333359 
	C163.813782,196.550797 163.425476,195.768250 162.874741,194.198242 
	C162.850037,193.137680 162.825333,192.077103 163.193329,190.460358 
	C164.178207,188.719879 165.163086,186.979385 166.729874,184.895905 
	C169.691269,181.424637 174.562683,179.228516 174.556656,173.304504 
	C172.830673,173.555847 171.414581,173.762054 169.611969,173.704468 
	C169.331589,173.557739 169.033188,173.482895 168.546112,172.900009 
	C170.760178,171.640182 172.974228,170.380356 175.853409,168.953171 
	C177.796234,167.503693 179.862732,166.190063 181.646637,164.566025 
	C183.385529,162.982986 183.794388,161.206497 181.066666,159.533356 
	C181.066666,159.533356 181.061691,159.111404 181.540039,158.970139 
	C181.540039,158.970139 182.015472,158.819321 182.764587,158.884277 
	C183.515076,158.846527 184.265549,158.808792 185.819138,158.922577 
	C186.892929,158.789825 187.966721,158.657074 189.631622,158.846054 
	C190.743683,159.589813 191.855743,160.333557 192.967819,161.795013 
	C193.983795,162.462006 194.999786,163.128998 196.332855,164.191833 
	C196.577713,164.634216 196.822571,165.076614 197.009476,166.151733 
	C197.177094,166.755051 197.344711,167.358368 197.618652,168.759552 
	C198.150146,173.833496 200.711227,177.354630 204.844025,178.870407 
	C205.300064,175.594925 205.772949,172.198441 206.863052,168.459564 
	C208.250549,166.998672 209.638046,165.537781 211.690430,163.751709 
	C214.930374,163.319458 216.564301,161.389313 216.961838,158.217972 
	C217.806763,151.477356 219.174210,144.762314 219.461334,138.000015 
	C220.051147,124.108315 216.962692,110.802437 210.103714,98.754311 
	C204.476486,88.869843 199.594635,78.058022 187.017822,74.282211 
	C183.434479,73.206436 183.697021,72.219498 182.090515,77.439957 
	C182.306992,78.656120 182.523468,79.872284 182.602646,81.969215 
	C183.257156,83.595337 183.911652,85.221458 183.734177,86.494270 
	C183.168213,86.291458 182.602234,86.088638 181.594009,85.320816 
	C180.054474,85.464638 177.741623,80.997726 176.256210,86.220741 
	C174.803665,86.746078 173.351120,87.271408 171.561646,87.302719 
	C169.678467,88.476051 167.795303,89.649391 165.359589,90.515732 
	C164.769882,89.457916 164.180176,88.400101 163.590485,87.342293 
	C163.227692,87.489777 162.864899,87.637260 162.502106,87.784744 
	C162.657944,89.505318 162.813766,91.225899 162.395981,93.008530 
	C161.668930,92.385231 160.959595,91.739754 160.211502,91.142799 
	C157.992966,89.372421 155.759171,87.621155 153.056793,85.356415 
	C144.843689,80.332603 144.843689,80.332603 140.120239,85.167175 
	C139.013550,86.753792 137.906876,88.340401 136.304535,90.329849 
	C135.778290,91.442856 135.252045,92.555862 134.269135,94.181374 
	C133.024796,96.434036 131.780457,98.686691 130.000595,101.345108 
	C129.207260,103.255775 128.413925,105.166435 127.588295,107.845314 
	C129.009750,109.300674 130.431198,110.756027 131.493759,112.845215 
	C131.363953,114.557487 131.234146,116.269753 130.637726,118.482994 
	C128.354111,120.025139 126.070503,121.567284 123.927834,122.431686 
	C123.610168,121.621475 123.292503,120.811264 122.790718,119.312500 
	C121.449966,116.577858 120.109222,113.843208 118.768478,111.108559 
	C118.217911,111.242653 117.667343,111.376755 117.116776,111.510849 
	C117.493530,114.980171 117.870285,118.449493 118.116699,122.537064 
M169.489563,71.765350 
	C169.045227,73.176361 168.026611,74.709854 168.295105,75.968849 
	C168.670364,77.728554 169.940628,79.327766 170.994843,80.882469 
	C171.170746,81.141869 172.730011,80.888237 172.743759,80.767952 
	C172.912628,79.292488 173.069397,77.781288 172.915863,76.312088 
	C172.728928,74.523102 172.244095,72.765244 172.133636,70.299744 
	C172.954681,68.761185 173.964890,67.286301 174.513657,65.656082 
	C174.771912,64.888870 174.143188,63.823082 173.916397,62.892593 
	C172.935181,63.331947 171.368500,63.537910 171.082825,64.254547 
	C170.234558,66.382416 169.890686,68.711357 169.489563,71.765350 
M98.957077,85.130676 
	C98.957077,85.130676 99.255577,85.158768 99.255577,85.158768 
	C99.255577,85.158768 98.991150,85.271385 98.760406,84.591202 
	C97.815475,81.462143 96.870544,78.333092 95.453506,74.685516 
	C95.345963,74.477982 95.238419,74.270447 95.321594,73.588806 
	C94.880981,73.405464 94.440369,73.222122 93.673973,72.470428 
	C93.592125,72.267975 93.510277,72.065521 94.252525,71.996979 
	C95.486839,70.971344 96.721153,69.945709 98.681702,68.920143 
	C100.225327,68.548737 100.835373,63.178219 102.852135,68.441788 
	C103.271408,69.191254 103.690681,69.940720 104.619049,70.841995 
	C104.967377,70.886810 105.315704,70.931618 105.928246,71.309532 
	C106.284836,71.539841 106.641434,71.770157 106.991989,72.800690 
	C107.037582,73.865372 107.083168,74.930046 106.792458,76.554230 
	C106.788528,77.679199 106.784599,78.804161 106.033180,80.069405 
	C105.437553,82.698494 104.841927,85.327583 104.207298,88.703331 
	C104.626335,90.128677 105.045364,91.554024 105.173882,91.991173 
	C109.800323,89.788033 114.032249,88.084763 117.897598,85.769470 
	C119.326134,84.913803 119.891991,82.617912 120.584442,80.275558 
	C121.773735,78.520851 122.963020,76.766144 124.353508,74.360054 
	C124.789810,73.233749 125.226112,72.107437 125.753555,70.276695 
	C126.152016,69.177742 126.550484,68.078781 127.391983,66.472328 
	C128.963593,64.618332 130.535187,62.764336 132.375031,60.593887 
	C130.378922,60.023865 129.175369,59.680172 127.312004,59.050621 
	C126.704323,58.979561 126.096649,58.908504 125.271309,58.811993 
	C126.499695,57.672771 127.437485,56.803051 128.375275,55.933331 
	C128.131271,55.341957 127.887276,54.750584 127.643280,54.159210 
	C119.259277,56.684078 110.875275,59.208946 102.545105,61.798035 
	C102.545105,61.798035 102.468330,61.802383 101.786049,61.741993 
	C99.526848,63.510376 97.267639,65.278763 94.388512,67.289162 
	C90.861931,68.258904 90.464310,69.780426 92.742653,71.997856 
	C85.009041,71.475243 85.009041,71.475243 85.660049,76.621086 
	C77.812790,78.357384 77.735031,78.295959 72.540627,84.871719 
	C69.986267,88.105370 67.620796,91.515869 65.454651,95.022285 
	C61.905449,100.767502 63.152542,105.818298 69.400009,110.785172 
	C69.788017,109.846214 70.176018,108.907257 70.805687,107.544426 
	C70.984001,107.271957 71.147423,106.990837 72.044579,106.654938 
	C73.033798,106.525749 74.023010,106.396561 75.651711,106.522324 
	C77.821434,106.942108 80.145340,109.028656 82.718269,105.955261 
	C85.809898,104.567390 88.901535,103.179520 92.518318,101.931847 
	C92.815231,101.771057 93.112144,101.610268 93.409050,101.449471 
	C93.175575,101.326912 92.942101,101.204353 92.540703,100.386192 
	C92.699577,99.936989 92.858459,99.487785 93.649483,99.040367 
	C94.951859,99.941437 96.254234,100.842506 98.610153,102.472488 
	C97.829636,99.203880 97.330467,97.113472 96.744026,94.238968 
	C96.894676,92.211182 96.726349,90.462372 93.874763,90.150558 
	C91.132950,87.380341 91.132950,87.380341 86.529152,93.329895 
	C85.582031,92.320412 84.608963,91.283287 83.335037,89.976395 
	C82.908737,89.645241 82.482445,89.314087 82.249268,88.304062 
	C86.200996,85.184082 90.152725,82.064110 94.339523,79.634239 
	C94.016830,81.641510 93.694145,83.648788 93.164810,86.941467 
	C95.407372,86.339615 97.273056,85.838905 98.957077,85.130676 
M77.361168,179.865448 
	C76.492172,179.014832 75.293564,178.319458 74.807869,177.288300 
	C71.732117,170.758362 66.091187,167.885483 58.963047,165.470123 
	C64.376534,178.744537 71.488930,189.677979 81.728645,198.690231 
	C82.996681,195.464783 84.061729,192.755676 85.702919,189.658478 
	C87.473801,187.169678 87.378586,185.333481 84.213280,183.970871 
	C82.011436,183.023010 80.045372,181.527481 77.361168,179.865448 
M172.188293,205.115891 
	C172.726776,203.185135 173.265244,201.254379 173.803726,199.323624 
	C173.311661,199.145950 172.819580,198.968262 172.327515,198.790588 
	C170.554367,200.757294 167.939041,202.472763 167.255417,204.764481 
	C166.627319,206.870026 167.909607,211.647171 168.643997,211.708130 
	C172.681229,212.043213 171.552277,208.192184 172.188293,205.115891 
M139.831375,71.552917 
	C139.988953,73.037956 140.146545,74.522995 140.360016,76.534904 
	C142.731934,74.030548 144.523956,72.256317 146.149094,70.340515 
	C146.560593,69.855423 146.742371,68.775620 146.482880,68.228378 
	C146.196609,67.624687 144.942108,66.804062 144.694412,66.967049 
	C142.996201,68.084541 141.451523,69.435364 139.831375,71.552917 
z"/>
<path fill="#FDFEFE" opacity="1.000000" stroke="none" 
	d="
M119.531342,1.000000 
	C116.727402,1.833648 113.485344,2.821053 110.177650,3.478005 
	C55.766033,14.284870 10.663356,58.473495 2.062732,118.242668 
	C1.992251,118.732468 1.842074,119.210800 1.364554,119.847244 
	C1.000000,80.406364 1.000000,40.812733 1.000000,1.000000 
	C40.353958,1.000000 79.708321,1.000000 119.531342,1.000000 
z"/>
<path fill="#FDFEFE" opacity="1.000000" stroke="none" 
	d="
M1.000000,154.468658 
	C1.945582,157.759201 3.034714,161.488876 3.815138,165.282059 
	C14.938738,219.347504 59.418663,262.156342 113.827309,271.121429 
	C115.792809,271.445251 117.739197,271.885132 119.847244,272.635437 
	C80.406372,273.000000 40.812740,273.000000 1.000000,273.000000 
	C1.000000,233.646042 1.000000,194.291687 1.000000,154.468658 
z"/>
<path fill="#3F8E94" opacity="1.000000" stroke="none" 
	d="
M206.245850,168.801941 
	C205.772949,172.198441 205.300064,175.594925 204.844025,178.870407 
	C200.711227,177.354630 198.150146,173.833496 197.945648,168.302643 
	C199.386856,166.522614 200.928650,165.374161 201.551239,163.850189 
	C211.213089,140.200104 208.327728,118.009605 193.717178,97.147659 
	C191.846588,94.476715 190.731628,91.276573 189.037872,87.860207 
	C188.118591,87.652031 186.342361,87.249802 184.566147,86.847580 
	C183.911652,85.221458 183.257156,83.595337 183.070099,81.535370 
	C185.360718,81.390564 187.183899,81.679611 189.007538,81.979904 
	C189.008011,81.991158 189.030472,81.992828 189.101730,82.312057 
	C190.116425,83.394615 191.059845,84.157944 192.240067,85.092171 
	C192.989258,85.840958 193.501633,86.418846 194.036102,87.359741 
	C195.139740,89.737732 196.033066,91.883881 197.331635,93.747673 
	C212.144608,115.008278 216.270584,137.787521 207.409256,162.522766 
	C206.700592,164.500870 206.618881,166.703598 206.245850,168.801941 
z"/>
<path fill="#298B90" opacity="1.000000" stroke="none" 
	d="
M194.014023,86.996735 
	C193.501633,86.418846 192.989258,85.840958 192.157730,84.783440 
	C190.902557,83.533478 189.966522,82.763153 189.030472,81.992828 
	C189.030472,81.992828 189.008011,81.991158 188.918182,81.636055 
	C186.674408,79.806084 184.520462,78.331223 182.366531,76.856361 
	C183.697021,72.219498 183.434479,73.206436 187.017822,74.282211 
	C199.594635,78.058022 204.476486,88.869843 210.103714,98.754311 
	C216.962692,110.802437 220.051147,124.108315 219.461334,138.000015 
	C219.174210,144.762314 217.806763,151.477356 216.961838,158.217972 
	C216.564301,161.389313 214.930374,163.319458 211.383362,163.518845 
	C211.240417,162.475418 211.344223,161.647049 211.577438,160.856873 
	C219.086121,135.415939 215.071381,112.046707 198.879623,90.938629 
	C197.644257,89.328186 195.653595,88.297112 194.014023,86.996735 
z"/>
<path fill="#B7CBCD" opacity="1.000000" stroke="none" 
	d="
M114.946609,146.964951 
	C114.812592,145.495346 115.014534,143.889328 114.483322,142.580994 
	C112.688553,138.160553 114.084023,134.753052 118.491272,134.893188 
	C119.262901,137.848602 119.605347,140.354019 119.731705,143.060211 
	C119.660439,143.934036 119.805283,144.607071 119.992233,145.617981 
	C123.985649,155.460434 133.512146,160.987381 143.375778,158.684708 
	C148.162308,157.567291 153.371307,156.231094 156.303589,150.897949 
	C157.136414,149.120972 157.689484,147.566620 158.557281,145.905991 
	C159.916260,143.540451 160.960541,141.281189 162.223206,138.773163 
	C161.626663,136.018677 160.811707,133.512985 159.974548,130.637207 
	C157.557709,122.085312 151.275543,116.810020 142.970490,115.649002 
	C143.779816,114.189629 144.586533,113.086136 145.746857,112.018913 
	C152.568283,113.778267 157.803879,117.133438 161.492798,122.912933 
	C168.993149,134.663910 166.602539,145.549362 158.744492,155.956543 
	C157.962143,156.225983 157.397278,156.626816 156.502014,157.114548 
	C146.620117,163.388519 136.561264,166.009003 126.524246,159.024017 
	C122.039589,155.903046 118.768471,151.038315 114.946609,146.964951 
z"/>
<path fill="#81AAAE" opacity="1.000000" stroke="none" 
	d="
M185.016037,158.771042 
	C184.265549,158.808792 183.515076,158.846527 182.309235,158.501831 
	C182.081619,155.709244 182.276459,153.295471 182.543625,150.889709 
	C183.196701,145.008911 184.890579,139.041443 184.372711,133.269745 
	C182.622925,113.768517 169.909805,102.066994 153.600632,92.913834 
	C147.736053,91.865082 142.268127,90.896042 136.800186,89.927017 
	C137.906876,88.340401 139.013550,86.753792 140.803757,85.187820 
	C145.501953,85.426453 149.516647,85.644440 153.531326,85.862427 
	C155.759171,87.621155 157.992966,89.372421 160.211502,91.142799 
	C160.959595,91.739754 161.668930,92.385231 162.864899,93.263824 
	C164.970032,94.913528 166.548874,96.382607 168.251373,97.690758 
	C184.473389,110.155273 191.243378,126.428596 187.890305,146.692856 
	C187.216354,150.765930 185.988510,154.747360 185.016037,158.771042 
z"/>
<path fill="#21888D" opacity="1.000000" stroke="none" 
	d="
M95.130882,74.062912 
	C95.238419,74.270447 95.345963,74.477982 95.622498,75.240837 
	C95.229149,76.845482 94.666801,77.894806 94.104454,78.944138 
	C90.152725,82.064110 86.200996,85.184082 81.818787,88.729546 
	C76.185730,93.946236 71.937096,99.286148 71.295952,106.701065 
	C71.147423,106.990837 70.984001,107.271957 70.426102,107.894928 
	C69.673798,108.911308 69.301071,109.577187 68.928345,110.243065 
	C63.152542,105.818298 61.905449,100.767502 65.454651,95.022285 
	C67.620796,91.515869 69.986267,88.105370 72.540627,84.871719 
	C77.735031,78.295959 77.812790,78.357384 85.660049,76.621086 
	C85.009041,71.475243 85.009041,71.475243 93.124420,71.938751 
	C93.506195,71.879654 93.428436,71.863075 93.428436,71.863075 
	C93.510277,72.065521 93.592125,72.267975 93.939186,72.920273 
	C94.513229,73.601044 94.822052,73.831978 95.130882,74.062912 
M91.448143,75.568779 
	C90.472366,74.856773 89.496597,74.144775 88.520821,73.432770 
	C88.249779,74.257347 87.978729,75.081924 87.707680,75.906509 
	C88.947159,75.992691 90.186638,76.078873 91.448143,75.568779 
z"/>
<path fill="#6C9FA4" opacity="1.000000" stroke="none" 
	d="
M165.912125,90.822723 
	C167.795303,89.649391 169.678467,88.476051 171.804382,87.852119 
	C173.224548,89.731613 174.266525,91.219025 175.600357,92.367447 
	C189.001007,103.905273 197.310989,118.125229 196.810638,136.127975 
	C196.578690,144.473572 194.312042,152.762619 192.967819,161.077301 
	C191.855743,160.333557 190.743683,159.589813 189.371307,158.327332 
	C189.412064,156.690552 189.665390,155.557037 190.021469,154.456757 
	C194.637299,140.193863 193.509750,126.519127 186.644699,113.081795 
	C181.795197,103.589539 174.400314,96.770485 165.912125,90.822723 
z"/>
<path fill="#54959A" opacity="1.000000" stroke="none" 
	d="
M177.031372,86.086060 
	C177.741623,80.997726 180.054474,85.464638 181.908707,85.932281 
	C183.827682,88.645493 185.221344,90.956474 187.069077,92.816345 
	C204.027435,109.886139 209.829163,138.825058 200.474091,160.741638 
	C199.724106,162.498672 198.220718,163.934113 197.067429,165.518997 
	C196.822571,165.076614 196.577713,164.634216 196.185303,163.609375 
	C197.689056,155.267334 200.479233,147.548660 200.759888,139.739822 
	C201.387527,122.275299 195.593811,106.870720 182.934891,94.311775 
	C180.572250,91.967796 178.979446,88.847878 177.031372,86.086060 
z"/>
<path fill="#8DB1B4" opacity="1.000000" stroke="none" 
	d="
M153.997269,92.993546 
	C169.909805,102.066994 182.622925,113.768517 184.372711,133.269745 
	C184.890579,139.041443 183.196701,145.008911 182.543625,150.889709 
	C182.276459,153.295471 182.081619,155.709244 181.934662,158.469360 
	C182.015472,158.819321 181.540039,158.970139 181.142090,158.836609 
	C180.493301,158.467209 180.242462,158.231339 179.803375,157.718109 
	C179.093735,155.590881 177.685913,153.434677 178.201324,151.943039 
	C180.705185,144.696854 181.287674,137.512527 179.961334,129.926117 
	C176.996979,112.970596 162.360046,98.891655 145.128311,96.674728 
	C144.944794,95.952362 144.841873,95.539108 145.182159,95.101318 
	C148.416016,94.382370 151.206650,93.687958 153.997269,92.993546 
z"/>
<path fill="#77A5A9" opacity="1.000000" stroke="none" 
	d="
M165.635864,90.669228 
	C174.400314,96.770485 181.795197,103.589539 186.644699,113.081795 
	C193.509750,126.519127 194.637299,140.193863 190.021469,154.456757 
	C189.665390,155.557037 189.412064,156.690552 189.075745,158.166473 
	C187.966721,158.657074 186.892929,158.789825 185.417587,158.846802 
	C185.988510,154.747360 187.216354,150.765930 187.890305,146.692856 
	C191.243378,126.428596 184.473389,110.155273 168.251373,97.690758 
	C166.548874,96.382607 164.970032,94.913528 163.151703,93.232796 
	C162.813766,91.225899 162.657944,89.505318 162.502106,87.784744 
	C162.864899,87.637260 163.227692,87.489777 163.590485,87.342293 
	C164.180176,88.400101 164.769882,89.457916 165.635864,90.669228 
z"/>
<path fill="#5F999E" opacity="1.000000" stroke="none" 
	d="
M176.643799,86.153397 
	C178.979446,88.847878 180.572250,91.967796 182.934891,94.311775 
	C195.593811,106.870720 201.387527,122.275299 200.759888,139.739822 
	C200.479233,147.548660 197.689056,155.267334 196.026764,163.411453 
	C194.999786,163.128998 193.983795,162.462006 192.967819,161.436157 
	C194.312042,152.762619 196.578690,144.473572 196.810638,136.127975 
	C197.310989,118.125229 189.001007,103.905273 175.600357,92.367447 
	C174.266525,91.219025 173.224548,89.731613 171.972839,88.099129 
	C173.351120,87.271408 174.803665,86.746078 176.643799,86.153397 
z"/>
<path fill="#21888D" opacity="1.000000" stroke="none" 
	d="
M85.126770,190.046570 
	C84.061729,192.755676 82.996681,195.464783 81.728645,198.690231 
	C71.488930,189.677979 64.376534,178.744537 58.963047,165.470123 
	C66.091187,167.885483 71.732117,170.758362 74.807869,177.288300 
	C75.293564,178.319458 76.492172,179.014832 77.696121,180.420120 
	C80.396309,183.998718 82.761543,187.022644 85.126770,190.046570 
z"/>
<path fill="#2F898F" opacity="1.000000" stroke="none" 
	d="
M194.036102,87.359741 
	C195.653595,88.297112 197.644257,89.328186 198.879623,90.938629 
	C215.071381,112.046707 219.086121,135.415939 211.577438,160.856873 
	C211.344223,161.647049 211.240417,162.475418 211.050919,163.681427 
	C209.638046,165.537781 208.250549,166.998672 206.554443,168.630753 
	C206.618881,166.703598 206.700592,164.500870 207.409256,162.522766 
	C216.270584,137.787521 212.144608,115.008278 197.331635,93.747673 
	C196.033066,91.883881 195.139740,89.737732 194.036102,87.359741 
z"/>
<path fill="#C9D7D9" opacity="1.000000" stroke="none" 
	d="
M119.947800,142.859467 
	C119.605347,140.354019 119.262901,137.848602 118.882111,134.985062 
	C119.373123,132.458313 119.902489,130.289658 120.431854,128.121017 
	C120.143021,128.079422 119.854187,128.037842 119.565361,127.996246 
	C120.655685,126.841003 121.746002,125.685753 123.049377,124.062103 
	C123.413139,123.406158 123.587959,123.244743 123.786896,123.109436 
	C126.070503,121.567284 128.354111,120.025139 131.125916,118.229050 
	C131.784317,117.971321 131.954514,117.967522 132.496536,117.987595 
	C135.567596,117.990891 138.266815,117.970337 141.172302,118.232208 
	C143.835403,119.803207 146.291351,121.093529 148.749344,122.379936 
	C152.302521,124.239517 154.961075,126.720390 154.534470,131.098236 
	C153.804398,131.031830 153.385757,131.001099 152.687469,130.795593 
	C151.188736,129.499466 149.952728,128.395828 148.753647,127.253464 
	C144.765259,123.453751 140.042740,122.347458 135.001373,124.322746 
	C130.179626,126.211975 126.453735,129.409119 126.001160,135.490601 
	C123.927689,138.168274 121.937744,140.513870 119.947800,142.859467 
z"/>
<path fill="#A4BEC1" opacity="1.000000" stroke="none" 
	d="
M108.004349,156.001358 
	C108.902275,154.824295 109.800194,153.647232 111.249039,152.341736 
	C112.737129,153.110611 113.602188,154.101410 114.623695,154.889374 
	C119.547638,158.687576 124.054665,163.418732 129.564453,165.979843 
	C139.725296,170.702927 153.565842,166.795517 158.547180,160.493347 
	C159.281372,161.936905 159.813446,163.093323 160.161255,164.595642 
	C157.890457,166.478043 156.006729,168.497391 153.684494,169.472733 
	C138.529099,175.838074 122.681473,171.897827 111.991951,159.437958 
	C110.862312,158.121216 109.342926,157.138855 108.004349,156.001358 
z"/>
<path fill="#AEC5C8" opacity="1.000000" stroke="none" 
	d="
M158.345078,160.206207 
	C153.565842,166.795517 139.725296,170.702927 129.564453,165.979843 
	C124.054665,163.418732 119.547638,158.687576 114.623695,154.889374 
	C113.602188,154.101410 112.737129,153.110611 111.487488,152.127838 
	C112.262703,150.478760 113.350395,148.915161 114.692352,147.158264 
	C118.768471,151.038315 122.039589,155.903046 126.524246,159.024017 
	C136.561264,166.009003 146.620117,163.388519 156.672241,157.369934 
	C157.563629,158.427673 157.954346,159.316940 158.345078,160.206207 
z"/>
<path fill="#94B5B8" opacity="1.000000" stroke="none" 
	d="
M132.899948,181.142334 
	C129.979034,178.712860 127.155289,176.045029 122.339294,176.708801 
	C116.602165,172.256332 111.363930,168.134903 106.125687,164.013489 
	C106.010567,162.612778 105.895439,161.212051 106.243156,159.494263 
	C107.466393,159.788910 108.386520,160.278381 108.962646,161.031113 
	C115.148079,169.112778 123.575554,173.707367 133.306488,175.441010 
	C144.063416,177.357437 154.092896,175.223679 162.518433,167.588562 
	C163.485931,168.540070 164.246872,169.243195 164.830200,170.236847 
	C159.652939,176.035263 152.810165,177.539078 145.989716,178.966141 
	C141.664047,179.871201 137.265701,180.428864 132.899948,181.142334 
z"/>
<path fill="#9BB9BC" opacity="1.000000" stroke="none" 
	d="
M162.311890,167.340195 
	C154.092896,175.223679 144.063416,177.357437 133.306488,175.441010 
	C123.575554,173.707367 115.148079,169.112778 108.962646,161.031113 
	C108.386520,160.278381 107.466393,159.788910 106.381630,159.092560 
	C106.544029,158.129578 107.030792,157.251221 107.760956,156.187103 
	C109.342926,157.138855 110.862312,158.121216 111.991951,159.437958 
	C122.681473,171.897827 138.529099,175.838074 153.684494,169.472733 
	C156.006729,168.497391 157.890457,166.478043 160.385773,164.829407 
	C161.300339,165.591583 161.806107,166.465881 162.311890,167.340195 
z"/>
<path fill="#21888D" opacity="1.000000" stroke="none" 
	d="
M102.491272,61.733818 
	C110.875275,59.208946 119.259277,56.684078 127.643280,54.159210 
	C127.887276,54.750584 128.131271,55.341957 128.375275,55.933331 
	C127.437485,56.803051 126.499695,57.672771 125.271309,58.811993 
	C126.096649,58.908504 126.704323,58.979561 127.526840,59.514214 
	C126.005234,61.034344 124.341599,62.242195 122.518784,63.119190 
	C116.933342,65.806465 111.286812,68.366753 105.664032,70.976425 
	C105.315704,70.931618 104.967377,70.886810 104.325577,70.421951 
	C103.807266,69.350243 103.582420,68.698593 103.357574,68.046936 
	C100.835373,63.178219 100.225327,68.548737 98.103394,68.721115 
	C96.686203,68.030434 95.847321,67.538795 95.008438,67.047150 
	C97.267639,65.278763 99.526848,63.510376 102.317635,62.086632 
	C104.375160,64.605103 105.885139,65.362007 108.312027,62.328823 
	C105.743050,62.066216 104.117165,61.900017 102.491272,61.733818 
z"/>
<path fill="#4A9196" opacity="1.000000" stroke="none" 
	d="
M197.038452,165.835358 
	C198.220718,163.934113 199.724106,162.498672 200.474091,160.741638 
	C209.829163,138.825058 204.027435,109.886139 187.069077,92.816345 
	C185.221344,90.956474 183.827682,88.645493 182.129837,86.214790 
	C182.602234,86.088638 183.168213,86.291458 184.150162,86.670921 
	C186.342361,87.249802 188.118591,87.652031 189.037872,87.860207 
	C190.731628,91.276573 191.846588,94.476715 193.717178,97.147659 
	C208.327728,118.009605 211.213089,140.200104 201.551239,163.850189 
	C200.928650,165.374161 199.386856,166.522614 197.892502,167.903717 
	C197.344711,167.358368 197.177094,166.755051 197.038452,165.835358 
z"/>
<path fill="#89AFB2" opacity="1.000000" stroke="none" 
	d="
M132.899384,181.340485 
	C137.265701,180.428864 141.664047,179.871201 145.989716,178.966141 
	C152.810165,177.539078 159.652939,176.035263 165.062378,170.152802 
	C165.733093,169.567200 165.935791,169.310257 166.407043,168.922546 
	C169.494843,165.230865 172.255890,161.623978 175.431671,158.013824 
	C177.228149,158.005524 178.609894,158.000488 179.991638,157.995468 
	C180.242462,158.231339 180.493301,158.467209 180.902908,158.907242 
	C181.061691,159.111404 181.066666,159.533356 180.771408,159.853271 
	C178.713531,163.155624 176.950912,166.138077 175.188293,169.120514 
	C172.974228,170.380356 170.760178,171.640182 168.269562,173.398727 
	C166.580750,174.762802 165.199036,175.683289 163.751343,176.484604 
	C154.082214,181.836411 144.027237,185.051071 132.860428,181.933090 
	C132.860428,181.933090 132.898834,181.538651 132.899384,181.340485 
z"/>
<path fill="#77A5A9" opacity="1.000000" stroke="none" 
	d="
M134.936417,190.019257 
	C134.571976,189.258774 134.207520,188.498291 134.187805,187.258362 
	C136.325851,186.521439 138.138474,186.357010 139.909103,185.990097 
	C146.820038,184.557999 153.917786,183.641678 160.540070,181.356842 
	C164.116837,180.122742 166.872437,176.508652 169.998505,173.968277 
	C171.414581,173.762054 172.830673,173.555847 174.556656,173.304504 
	C174.562683,179.228516 169.691269,181.424637 166.169022,184.850479 
	C164.512192,184.828674 163.228333,184.484238 162.349335,184.932922 
	C153.698334,189.348801 144.472824,190.479568 134.936417,190.019257 
z"/>
<path fill="#6C9FA4" opacity="1.000000" stroke="none" 
	d="
M134.929230,190.392044 
	C144.472824,190.479568 153.698334,189.348801 162.349335,184.932922 
	C163.228333,184.484238 164.512192,184.828674 165.878067,185.021973 
	C165.163086,186.979385 164.178207,188.719879 162.595520,190.740707 
	C153.381393,192.352295 144.765091,193.683533 136.148804,195.014771 
	C135.739868,193.598114 135.330948,192.181473 134.929230,190.392044 
z"/>
<path fill="#4A9196" opacity="1.000000" stroke="none" 
	d="
M164.001312,197.999969 
	C164.895767,201.408249 162.741714,202.835907 159.326355,204.020782 
	C150.736847,204.721405 142.947464,205.365158 135.158081,206.008911 
	C134.868958,204.974060 134.579834,203.939209 134.795380,202.486404 
	C144.867142,200.712280 154.434235,199.356125 164.001312,197.999969 
z"/>
<path fill="#81AAAE" opacity="1.000000" stroke="none" 
	d="
M169.805237,173.836380 
	C166.872437,176.508652 164.116837,180.122742 160.540070,181.356842 
	C153.917786,183.641678 146.820038,184.557999 139.909103,185.990097 
	C138.138474,186.357010 136.325851,186.521439 134.128113,186.942200 
	C133.254440,185.507843 132.785202,183.910172 132.588196,182.122803 
	C144.027237,185.051071 154.082214,181.836411 163.751343,176.484604 
	C165.199036,175.683289 166.580750,174.762802 168.354889,173.688675 
	C169.033188,173.482895 169.331589,173.557739 169.805237,173.836380 
z"/>
<path fill="#3F8E94" opacity="1.000000" stroke="none" 
	d="
M81.990143,105.935989 
	C80.145340,109.028656 77.821434,106.942108 75.392822,106.026375 
	C77.967926,100.435669 80.801910,95.340912 83.635895,90.246155 
	C84.608963,91.283287 85.582031,92.320412 86.529152,93.329895 
	C91.132950,87.380341 91.132950,87.380341 93.543442,90.602226 
	C87.224564,94.320305 84.077950,99.728951 81.990143,105.935989 
z"/>
<path fill="#298B90" opacity="1.000000" stroke="none" 
	d="
M155.167603,213.344513 
	C153.794189,220.038559 148.390289,219.363052 143.479568,219.946167 
	C138.494873,220.538055 138.634064,216.484497 137.681305,213.368835 
	C141.592194,212.869522 145.078461,212.613403 148.562576,212.639923 
	C150.765915,212.656693 152.966034,213.095184 155.167603,213.344513 
z"/>
<path fill="#54959A" opacity="1.000000" stroke="none" 
	d="
M104.246292,87.956673 
	C104.841927,85.327583 105.437553,82.698494 106.796059,79.989349 
	C113.090057,78.276665 118.621185,76.644051 124.152306,75.011429 
	C122.963020,76.766144 121.773735,78.520851 120.289482,80.667290 
	C114.745117,83.358238 109.495705,85.657455 104.246292,87.956673 
z"/>
<path fill="#8DB1B4" opacity="1.000000" stroke="none" 
	d="
M105.926880,164.336121 
	C111.363930,168.134903 116.602165,172.256332 121.923744,176.713089 
	C112.134796,178.876587 109.795471,176.205673 105.977699,169.685822 
	C105.225784,168.401718 105.777557,166.354202 105.926880,164.336121 
z"/>
<path fill="#54959A" opacity="1.000000" stroke="none" 
	d="
M164.101700,197.666656 
	C154.434235,199.356125 144.867142,200.712280 134.796616,202.082123 
	C134.319092,200.857773 134.345016,199.619751 135.071106,198.170883 
	C144.859879,196.968597 153.948532,195.977142 163.037170,194.985687 
	C163.425476,195.768250 163.813782,196.550797 164.101700,197.666656 
z"/>
<path fill="#318B90" opacity="1.000000" stroke="none" 
	d="
M105.796143,71.142975 
	C111.286812,68.366753 116.933342,65.806465 122.518784,63.119190 
	C124.341599,62.242195 126.005234,61.034344 127.856750,59.657146 
	C129.175369,59.680172 130.378922,60.023865 132.375031,60.593887 
	C130.535187,62.764336 128.963593,64.618332 126.750504,66.730103 
	C119.738693,68.658737 113.368362,70.329597 106.998024,72.000458 
	C106.641434,71.770157 106.284836,71.539841 105.796143,71.142975 
z"/>
<path fill="#5F999E" opacity="1.000000" stroke="none" 
	d="
M162.955963,194.591965 
	C153.948532,195.977142 144.859879,196.968597 135.292664,197.942612 
	C135.164459,197.149445 135.514847,196.373718 136.007019,195.306396 
	C144.765091,193.683533 153.381393,192.352295 162.399170,191.018799 
	C162.825333,192.077103 162.850037,193.137680 162.955963,194.591965 
z"/>
<path fill="#54959A" opacity="1.000000" stroke="none" 
	d="
M82.354202,105.945625 
	C84.077950,99.728951 87.224564,94.320305 93.568726,91.034966 
	C96.726349,90.462372 96.894676,92.211182 96.469887,94.707199 
	C95.136276,96.463142 94.076805,97.750862 93.017334,99.038582 
	C92.858459,99.487785 92.699577,99.936989 92.479828,100.823669 
	C92.252663,101.418419 92.110733,101.595253 91.993164,101.791649 
	C88.901535,103.179520 85.809898,104.567390 82.354202,105.945625 
z"/>
<path fill="#3F8E94" opacity="1.000000" stroke="none" 
	d="
M135.140320,206.357788 
	C142.947464,205.365158 150.736847,204.721405 158.990448,204.100449 
	C159.062851,205.159576 158.671021,206.195908 157.795044,207.594345 
	C150.278717,208.642426 143.246521,209.328384 136.214340,210.014343 
	C135.850418,208.911789 135.486496,207.809235 135.140320,206.357788 
z"/>
<path fill="#3F8E94" opacity="1.000000" stroke="none" 
	d="
M106.995010,72.400574 
	C113.368362,70.329597 119.738693,68.658737 126.528992,66.983849 
	C126.550484,68.078781 126.152016,69.177742 125.317459,70.631866 
	C122.814392,71.414291 120.707100,71.704483 118.689072,72.298111 
	C114.808922,73.439499 110.979324,74.752754 107.128761,75.994728 
	C107.083168,74.930046 107.037582,73.865372 106.995010,72.400574 
z"/>
<path fill="#318B90" opacity="1.000000" stroke="none" 
	d="
M136.223511,210.333313 
	C143.246521,209.328384 150.278717,208.642426 157.760498,207.942993 
	C157.377991,209.611710 156.545883,211.293884 155.440689,213.160278 
	C152.966034,213.095184 150.765915,212.656693 148.562576,212.639923 
	C145.078461,212.613403 141.592194,212.869522 137.658600,213.007095 
	C136.884476,212.222870 136.558563,211.437576 136.223511,210.333313 
z"/>
<path fill="#318B90" opacity="1.000000" stroke="none" 
	d="
M83.485466,90.111275 
	C80.801910,95.340912 77.967926,100.435669 75.073090,105.898895 
	C74.023010,106.396561 73.033798,106.525749 71.670265,106.678001 
	C71.937096,99.286148 76.185730,93.946236 81.722229,89.068985 
	C82.482445,89.314087 82.908737,89.645241 83.485466,90.111275 
z"/>
<path fill="#6C9FA4" opacity="1.000000" stroke="none" 
	d="
M104.226799,88.330002 
	C109.495705,85.657455 114.745117,83.358238 120.422913,81.018951 
	C119.891991,82.617912 119.326134,84.913803 117.897598,85.769470 
	C114.032249,88.084763 109.800323,89.788033 105.173882,91.991173 
	C105.045364,91.554024 104.626335,90.128677 104.226799,88.330002 
z"/>
<path fill="#4A9196" opacity="1.000000" stroke="none" 
	d="
M106.960609,76.274475 
	C110.979324,74.752754 114.808922,73.439499 118.689072,72.298111 
	C120.707100,71.704483 122.814392,71.414291 125.271896,70.984085 
	C125.226112,72.107437 124.789810,73.233749 124.252907,74.685745 
	C118.621185,76.644051 113.090057,78.276665 107.169800,79.919205 
	C106.784599,78.804161 106.788528,77.679199 106.960609,76.274475 
z"/>
<path fill="#89AFB2" opacity="1.000000" stroke="none" 
	d="
M153.600632,92.913834 
	C151.206650,93.687958 148.416016,94.382370 144.933533,95.120071 
	C143.908936,95.175545 143.576660,95.168365 142.794403,95.113121 
	C139.804611,94.612564 137.265213,94.140724 134.725800,93.668877 
	C135.252045,92.555862 135.778290,91.442856 136.552368,90.128433 
	C142.268127,90.896042 147.736053,91.865082 153.600632,92.913834 
z"/>
<path fill="#AEC5C8" opacity="1.000000" stroke="none" 
	d="
M131.852661,112.211388 
	C130.431198,110.756027 129.009750,109.300674 128.062881,107.442657 
	C132.149231,106.350113 135.760986,105.660210 139.535141,105.275879 
	C139.236374,107.790672 138.775208,109.999878 137.965210,112.210777 
	C136.742691,112.478088 135.869019,112.743713 134.755280,112.976212 
	C134.515182,112.943085 134.035294,112.874771 133.947571,112.635056 
	C133.190781,112.334023 132.521729,112.272705 131.852661,112.211388 
z"/>
<path fill="#318B90" opacity="1.000000" stroke="none" 
	d="
M172.235626,205.472397 
	C171.552277,208.192184 172.681229,212.043213 168.643997,211.708130 
	C167.909607,211.647171 166.627319,206.870026 167.255417,204.764481 
	C167.939041,202.472763 170.554367,200.757294 172.327515,198.790588 
	C172.819580,198.968262 173.311661,199.145950 173.803726,199.323624 
	C173.265244,201.254379 172.726776,203.185135 172.235626,205.472397 
z"/>
<path fill="#94B5B8" opacity="1.000000" stroke="none" 
	d="
M134.497467,93.925125 
	C137.265213,94.140724 139.804611,94.612564 142.642548,95.415726 
	C142.093643,97.565758 141.246231,99.384483 139.913483,101.163879 
	C136.464142,101.062805 133.500122,101.001076 130.536118,100.939346 
	C131.780457,98.686691 133.024796,96.434036 134.497467,93.925125 
z"/>
<path fill="#A4BEC1" opacity="1.000000" stroke="none" 
	d="
M130.268356,101.142227 
	C133.500122,101.001076 136.464142,101.062805 139.777390,101.470215 
	C139.875351,102.867363 139.624054,103.918839 139.372757,104.970306 
	C135.760986,105.660210 132.149231,106.350113 128.079025,107.058556 
	C128.413925,105.166435 129.207260,103.255775 130.268356,101.142227 
z"/>
<path fill="#3F8E94" opacity="1.000000" stroke="none" 
	d="
M94.221985,79.289185 
	C94.666801,77.894806 95.229149,76.845482 95.858551,75.500092 
	C96.870544,78.333092 97.815475,81.462143 98.918968,84.934097 
	C99.077530,85.276985 99.138733,85.338203 99.138733,85.338203 
	C97.273056,85.838905 95.407372,86.339615 93.164810,86.941467 
	C93.694145,83.648788 94.016830,81.641510 94.221985,79.289185 
z"/>
<path fill="#6C9FA4" opacity="1.000000" stroke="none" 
	d="
M153.294067,85.609421 
	C149.516647,85.644440 145.501953,85.426453 141.103470,85.048767 
	C144.843689,80.332603 144.843689,80.332603 153.294067,85.609421 
z"/>
<path fill="#318B90" opacity="1.000000" stroke="none" 
	d="
M85.414841,189.852524 
	C82.761543,187.022644 80.396309,183.998718 78.002518,180.625702 
	C80.045372,181.527481 82.011436,183.023010 84.213280,183.970871 
	C87.378586,185.333481 87.473801,187.169678 85.414841,189.852524 
z"/>
<path fill="#5F999E" opacity="1.000000" stroke="none" 
	d="
M171.888107,70.993927 
	C172.244095,72.765244 172.728928,74.523102 172.915863,76.312088 
	C173.069397,77.781288 172.912628,79.292488 172.743759,80.767952 
	C172.730011,80.888237 171.170746,81.141869 170.994843,80.882469 
	C169.940628,79.327766 168.670364,77.728554 168.295105,75.968849 
	C168.026611,74.709854 169.045227,73.176361 169.736496,71.339508 
	C170.618317,70.940414 171.253220,70.967171 171.888107,70.993927 
z"/>
<path fill="#81AAAE" opacity="1.000000" stroke="none" 
	d="
M175.520844,169.036835 
	C176.950912,166.138077 178.713531,163.155624 180.801819,160.062042 
	C183.794388,161.206497 183.385529,162.982986 181.646637,164.566025 
	C179.862732,166.190063 177.796234,167.503693 175.520844,169.036835 
z"/>
<path fill="#5F999E" opacity="1.000000" stroke="none" 
	d="
M139.844391,71.131973 
	C141.451523,69.435364 142.996201,68.084541 144.694412,66.967049 
	C144.942108,66.804062 146.196609,67.624687 146.482880,68.228378 
	C146.742371,68.775620 146.560593,69.855423 146.149094,70.340515 
	C144.523956,72.256317 142.731934,74.030548 140.360016,76.534904 
	C140.146545,74.522995 139.988953,73.037956 139.844391,71.131973 
z"/>
<path fill="#AEC5C8" opacity="1.000000" stroke="none" 
	d="
M118.247040,121.918816 
	C117.870285,118.449493 117.493530,114.980171 117.116776,111.510849 
	C117.667343,111.376755 118.217911,111.242653 118.768478,111.108559 
	C120.109222,113.843208 121.449966,116.577858 122.573967,119.761826 
	C120.987152,120.780373 119.617096,121.349594 118.247040,121.918816 
z"/>
<path fill="#3F8E94" opacity="1.000000" stroke="none" 
	d="
M172.010864,70.646835 
	C171.253220,70.967171 170.618317,70.940414 169.666534,70.937683 
	C169.890686,68.711357 170.234558,66.382416 171.082825,64.254547 
	C171.368500,63.537910 172.935181,63.331947 173.916397,62.892593 
	C174.143188,63.823082 174.771912,64.888870 174.513657,65.656082 
	C173.964890,67.286301 172.954681,68.761185 172.010864,70.646835 
z"/>
<path fill="#3F8E94" opacity="1.000000" stroke="none" 
	d="
M94.698471,67.168152 
	C95.847321,67.538795 96.686203,68.030434 97.740280,68.721085 
	C96.721153,69.945709 95.486839,70.971344 93.840485,71.930023 
	C93.428436,71.863075 93.506195,71.879654 93.539032,71.899872 
	C90.464310,69.780426 90.861931,68.258904 94.698471,67.168152 
z"/>
<path fill="#2F898F" opacity="1.000000" stroke="none" 
	d="
M182.228516,77.148163 
	C184.520462,78.331223 186.674408,79.806084 188.917694,81.624802 
	C187.183899,81.679611 185.360718,81.390564 183.138748,81.094986 
	C182.523468,79.872284 182.306992,78.656120 182.228516,77.148163 
z"/>
<path fill="#6C9FA4" opacity="1.000000" stroke="none" 
	d="
M93.333405,99.039474 
	C94.076805,97.750862 95.136276,96.463142 96.513519,95.099243 
	C97.330467,97.113472 97.829636,99.203880 98.610153,102.472488 
	C96.254234,100.842506 94.951859,99.941437 93.333405,99.039474 
z"/>
<path fill="#C2D2D4" opacity="1.000000" stroke="none" 
	d="
M118.181870,122.227936 
	C119.617096,121.349594 120.987152,120.780373 122.666023,120.106102 
	C123.292503,120.811264 123.610168,121.621475 123.857361,122.770561 
	C123.587959,123.244743 123.413139,123.406158 123.159882,123.739929 
	C121.338150,123.701294 118.524277,127.525276 118.181870,122.227936 
z"/>
<path fill="#C2D2D4" opacity="1.000000" stroke="none" 
	d="
M131.673218,112.528305 
	C132.521729,112.272705 133.190781,112.334023 133.934875,112.989098 
	C134.008072,114.052368 134.006241,114.521881 134.002228,114.995468 
	C134.000031,114.999542 133.994415,115.006332 133.705200,115.084076 
	C132.968201,115.545303 132.520447,115.928772 132.082581,116.587624 
	C132.103226,117.229912 132.113968,117.596825 132.124695,117.963730 
	C131.954514,117.967522 131.784317,117.971321 131.359222,117.978569 
	C131.234146,116.269753 131.363953,114.557487 131.673218,112.528305 
z"/>
<path fill="#318B90" opacity="1.000000" stroke="none" 
	d="
M69.164177,110.514114 
	C69.301071,109.577187 69.673798,108.911308 70.305275,108.106873 
	C70.176018,108.907257 69.788017,109.846214 69.164177,110.514114 
z"/>
<path fill="#318B90" opacity="1.000000" stroke="none" 
	d="
M103.104858,68.244362 
	C103.582420,68.698593 103.807266,69.350243 104.071037,70.346039 
	C103.690681,69.940720 103.271408,69.191254 103.104858,68.244362 
z"/>
<path fill="#6C9FA4" opacity="1.000000" stroke="none" 
	d="
M92.255737,101.861748 
	C92.110733,101.595253 92.252663,101.418419 92.563789,101.171463 
	C92.942101,101.204353 93.175575,101.326912 93.409058,101.449478 
	C93.112144,101.610268 92.815231,101.771057 92.255737,101.861748 
z"/>
<path fill="#3F8E94" opacity="1.000000" stroke="none" 
	d="
M95.226242,73.825859 
	C94.822052,73.831978 94.513229,73.601044 94.102081,73.204453 
	C94.440369,73.222122 94.880981,73.405464 95.226242,73.825859 
z"/>
<path fill="#3F8E94" opacity="1.000000" stroke="none" 
	d="
M99.034340,85.274185 
	C98.991150,85.271385 99.255577,85.158768 99.255577,85.158768 
	C99.255577,85.158768 98.957077,85.130676 99.047905,85.234436 
	C99.138733,85.338203 99.077530,85.276985 99.034340,85.274185 
z"/>
<path fill="#2F898F" opacity="1.000000" stroke="none" 
	d="
M189.101730,82.312057 
	C189.966522,82.763153 190.902557,83.533478 191.920929,84.612541 
	C191.059845,84.157944 190.116425,83.394615 189.101730,82.312057 
z"/>
<path fill="#FDFEFE" opacity="1.000000" stroke="none" 
	d="
M119.731705,143.060226 
	C121.937744,140.513870 123.927689,138.168274 126.403641,135.465363 
	C128.238678,135.028259 129.587708,134.948502 131.274673,134.973083 
	C135.462189,135.922684 136.719421,143.251892 142.220367,139.062378 
	C143.270447,140.703979 144.096985,141.996124 144.207718,142.169220 
	C146.333374,141.657227 147.655304,141.338821 149.067123,141.361679 
	C151.301254,143.950180 153.470779,146.138870 157.248520,145.234131 
	C157.723923,145.580566 157.983231,145.796417 158.242554,146.012283 
	C157.689484,147.566620 157.136414,149.120972 155.904404,150.866821 
	C153.154694,150.785782 151.083923,150.513214 148.655823,150.111176 
	C146.848236,149.732742 145.406464,149.365753 143.945847,149.260757 
	C141.332962,149.072922 138.708710,149.042938 135.882050,148.654465 
	C133.685883,145.842346 133.210098,140.775208 127.594505,143.795593 
	C126.137810,144.133347 125.031845,144.446167 123.526199,144.790466 
	C122.067719,144.974655 121.008919,145.127396 119.950127,145.280121 
	C119.805283,144.607071 119.660439,143.934036 119.731705,143.060226 
M136.665741,142.296646 
	C136.541931,142.618164 136.418137,142.939667 136.294327,143.261169 
	C136.442215,143.315094 136.590103,143.369019 136.737976,143.422958 
	C136.836105,143.087814 136.934219,142.752655 136.665741,142.296646 
z"/>
<path fill="#AEC5C8" opacity="1.000000" stroke="none" 
	d="
M158.961975,156.087906 
	C166.602539,145.549362 168.993149,134.663910 161.492798,122.912933 
	C157.803879,117.133438 152.568283,113.778267 145.653076,111.672569 
	C146.754181,110.149323 148.302658,109.008690 150.109970,108.112183 
	C159.107239,112.446831 165.626999,118.603806 168.865784,127.926437 
	C169.269836,129.089508 170.346848,130.018784 170.930603,131.354080 
	C170.861435,133.372543 170.973724,135.093307 170.953278,137.117920 
	C171.166214,138.603439 171.511856,139.785141 171.872131,141.310394 
	C171.890610,142.112488 171.894470,142.571030 171.545273,143.077164 
	C170.209167,144.662018 169.332993,146.281845 168.221786,147.720078 
	C165.539413,151.191895 162.747192,154.578842 159.825165,157.787262 
	C159.421371,157.078979 159.191666,156.583435 158.961975,156.087906 
z"/>
<path fill="#C2D2D4" opacity="1.000000" stroke="none" 
	d="
M119.992233,145.617981 
	C121.008919,145.127396 122.067719,144.974655 123.675507,145.122269 
	C125.629959,147.231659 126.775230,149.348328 128.486542,150.795776 
	C135.399368,156.642761 144.819290,156.289597 149.013153,150.240631 
	C151.083923,150.513214 153.154694,150.785782 155.624634,151.089462 
	C153.371307,156.231094 148.162308,157.567291 143.375778,158.684708 
	C133.512146,160.987381 123.985649,155.460434 119.992233,145.617981 
z"/>
<path fill="#F4F7F8" opacity="1.000000" stroke="none" 
	d="
M149.851135,107.868057 
	C148.302658,109.008690 146.754181,110.149323 145.299500,111.636299 
	C144.586533,113.086136 143.779816,114.189629 142.781342,115.854607 
	C142.048401,116.927322 141.507233,117.438553 140.966049,117.949783 
	C138.266815,117.970337 135.567596,117.990891 132.496521,117.987595 
	C132.113968,117.596825 132.103226,117.229912 132.330383,116.639343 
	C133.053238,116.571083 133.538208,116.726486 134.368698,116.841492 
	C135.914154,115.270424 137.114105,113.739754 138.314056,112.209091 
	C138.775208,109.999878 139.236374,107.790672 139.535141,105.275887 
	C139.624054,103.918839 139.875351,102.867363 140.262726,101.509552 
	C141.246231,99.384483 142.093643,97.565758 143.092926,95.444427 
	C143.576660,95.168365 143.908936,95.175545 144.490295,95.144608 
	C144.841873,95.539108 144.944794,95.952362 145.011169,96.986687 
	C144.559875,98.392426 144.145142,99.177101 143.544067,100.218025 
	C143.278839,101.313545 143.199966,102.152809 143.074310,103.389267 
	C142.850342,109.245773 147.996262,105.805931 149.851135,107.868057 
z"/>
<path fill="#C2D2D4" opacity="1.000000" stroke="none" 
	d="
M141.172302,118.232208 
	C141.507233,117.438553 142.048401,116.927322 142.778748,116.210487 
	C151.275543,116.810020 157.557709,122.085312 159.609055,130.603760 
	C158.533173,130.970612 157.800568,131.000854 156.706009,131.030029 
	C155.861618,131.051422 155.379181,131.073868 154.881516,131.098755 
	C154.866287,131.101181 154.845901,131.133911 154.845901,131.133911 
	C154.961075,126.720390 152.302521,124.239517 148.749344,122.379936 
	C146.291351,121.093529 143.835403,119.803207 141.172302,118.232208 
z"/>
<path fill="#FDFEFE" opacity="1.000000" stroke="none" 
	d="
M157.067963,131.031097 
	C157.800568,131.000854 158.533173,130.970612 159.631256,130.973816 
	C160.811707,133.512985 161.626663,136.018677 161.845078,138.719009 
	C159.503540,138.619141 157.758545,138.324661 155.599579,138.008545 
	C153.811768,137.924026 152.437958,137.861130 151.054077,137.415314 
	C151.012039,136.009644 150.980042,134.986893 151.099121,133.703156 
	C151.822495,132.618210 152.394806,131.794281 152.967117,130.970367 
	C153.385757,131.001099 153.804398,131.031830 154.534470,131.098236 
	C154.845901,131.133911 154.866287,131.101181 154.964630,131.353760 
	C155.731308,131.414581 156.399643,131.222855 157.067963,131.031097 
z"/>
<path fill="#F4F7F8" opacity="1.000000" stroke="none" 
	d="
M158.744492,155.956543 
	C159.191666,156.583435 159.421371,157.078979 159.887146,158.126495 
	C161.412064,160.461731 162.700928,162.244949 164.135986,164.287903 
	C164.737411,165.199371 165.192642,165.851105 165.650955,166.822327 
	C165.796112,167.763687 165.938187,168.385529 166.080276,169.007370 
	C165.935791,169.310257 165.733093,169.567200 165.239990,169.862259 
	C164.246872,169.243195 163.485931,168.540070 162.518433,167.588562 
	C161.806107,166.465881 161.300339,165.591583 160.570038,164.483505 
	C159.813446,163.093323 159.281372,161.936905 158.547180,160.493347 
	C157.954346,159.316940 157.563629,158.427673 157.002655,157.283020 
	C157.397278,156.626816 157.962143,156.225983 158.744492,155.956543 
z"/>
<path fill="#C2D2D4" opacity="1.000000" stroke="none" 
	d="
M156.013550,138.030182 
	C157.758545,138.324661 159.503540,138.619141 161.626678,138.967789 
	C160.960541,141.281189 159.916260,143.540451 158.557281,145.905991 
	C157.983231,145.796417 157.723923,145.580566 157.095428,144.864502 
	C156.488693,142.252930 156.251129,140.141556 156.013550,138.030182 
z"/>
<path fill="#3F8E94" opacity="1.000000" stroke="none" 
	d="
M91.437134,75.866913 
	C90.186638,76.078873 88.947159,75.992691 87.707680,75.906509 
	C87.978729,75.081924 88.249779,74.257347 88.520821,73.432770 
	C89.496597,74.144775 90.472366,74.856773 91.437134,75.866913 
z"/>
<path fill="#94B5B8" opacity="1.000000" stroke="none" 
	d="
M143.730423,99.961777 
	C144.145142,99.177101 144.559875,98.392426 145.091751,97.295799 
	C162.360046,98.891655 176.996979,112.970596 179.961334,129.926117 
	C181.287674,137.512527 180.705185,144.696854 178.201324,151.943039 
	C177.685913,153.434677 179.093735,155.590881 179.803375,157.718109 
	C178.609894,158.000488 177.228149,158.005524 175.425049,158.007111 
	C175.003693,158.003662 174.998169,157.998444 174.935028,157.694885 
	C174.264740,156.597031 173.657593,155.802750 173.057083,154.611969 
	C173.718918,150.985336 174.374115,147.755203 175.310913,144.249039 
	C175.689682,142.707321 175.786850,141.441635 176.061432,139.789429 
	C176.491821,137.612030 176.959091,135.821808 176.964310,134.030243 
	C177.012100,117.629372 161.297256,101.559952 143.730423,99.961777 
z"/>
<path fill="#D3DEDF" opacity="1.000000" stroke="none" 
	d="
M152.687469,130.795593 
	C152.394806,131.794281 151.822495,132.618210 150.766556,133.634933 
	C148.853104,132.723663 147.347672,131.703934 146.006638,130.500916 
	C140.299789,125.381355 133.269058,127.399399 130.936737,134.868744 
	C129.587708,134.948502 128.238678,135.028259 126.487167,135.133286 
	C126.453735,129.409119 130.179626,126.211975 135.001373,124.322746 
	C140.042740,122.347458 144.765259,123.453751 148.753647,127.253464 
	C149.952728,128.395828 151.188736,129.499466 152.687469,130.795593 
z"/>
<path fill="#3F8E94" opacity="1.000000" stroke="none" 
	d="
M102.518188,61.765926 
	C104.117165,61.900017 105.743050,62.066216 108.312027,62.328823 
	C105.885139,65.362007 104.375160,64.605103 102.658775,62.116829 
	C102.468330,61.802383 102.545105,61.798035 102.518188,61.765926 
z"/>
<path fill="#94B5B8" opacity="1.000000" stroke="none" 
	d="
M166.407043,168.922546 
	C165.938187,168.385529 165.796112,167.763687 165.861450,166.497803 
	C169.045303,163.235321 172.021729,160.616882 174.998169,157.998444 
	C174.998169,157.998444 175.003693,158.003662 175.010315,158.010376 
	C172.255890,161.623978 169.494843,165.230865 166.407043,168.922546 
z"/>
<path fill="#C2D2D4" opacity="1.000000" stroke="none" 
	d="
M137.965210,112.210770 
	C137.114105,113.739754 135.914154,115.270424 134.363358,116.529739 
	C134.006470,115.841034 134.000443,115.423683 133.994415,115.006332 
	C133.994415,115.006332 134.000031,114.999542 134.190155,114.784897 
	C134.585312,114.049957 134.790329,113.529648 134.995361,113.009338 
	C135.869019,112.743713 136.742691,112.478088 137.965210,112.210770 
z"/>
<path fill="#C9D7D9" opacity="1.000000" stroke="none" 
	d="
M134.755280,112.976212 
	C134.790329,113.529648 134.585312,114.049957 134.192352,114.780823 
	C134.006241,114.521881 134.008072,114.052368 134.022598,113.228813 
	C134.035294,112.874771 134.515182,112.943085 134.755280,112.976212 
z"/>
<path fill="#C9D7D9" opacity="1.000000" stroke="none" 
	d="
M133.705200,115.084076 
	C134.000443,115.423683 134.006470,115.841034 134.017838,116.570137 
	C133.538208,116.726486 133.053238,116.571083 132.320465,116.363968 
	C132.520447,115.928772 132.968201,115.545303 133.705200,115.084076 
z"/>
<path fill="#E2E9EA" opacity="1.000000" stroke="none" 
	d="
M131.274673,134.973083 
	C133.269058,127.399399 140.299789,125.381355 146.006638,130.500916 
	C147.347672,131.703934 148.853104,132.723663 150.615479,133.895935 
	C150.980042,134.986893 151.012039,136.009644 150.895752,137.699875 
	C150.157410,139.251724 149.567322,140.136063 148.977249,141.020416 
	C147.655304,141.338821 146.333374,141.657227 144.207718,142.169220 
	C144.096985,141.996124 143.270447,140.703979 142.220367,139.062378 
	C136.719421,143.251892 135.462189,135.922684 131.274673,134.973083 
z"/>
<path fill="#C9D7D9" opacity="1.000000" stroke="none" 
	d="
M148.655823,150.111160 
	C144.819290,156.289597 135.399368,156.642761 128.486542,150.795776 
	C126.775230,149.348328 125.629959,147.231659 124.075195,145.090790 
	C125.031845,144.446167 126.137810,144.133347 127.767303,144.114624 
	C130.890274,145.921448 133.489746,147.434204 136.089218,148.946960 
	C138.708710,149.042938 141.332962,149.072922 143.945847,149.260757 
	C145.406464,149.365753 146.848236,149.732742 148.655823,150.111160 
z"/>
<path fill="#D3DEDF" opacity="1.000000" stroke="none" 
	d="
M149.067123,141.361679 
	C149.567322,140.136063 150.157410,139.251724 150.905807,138.082794 
	C152.437958,137.861130 153.811768,137.924026 155.599579,138.008545 
	C156.251129,140.141556 156.488693,142.252930 156.879364,144.733932 
	C153.470779,146.138870 151.301254,143.950180 149.067123,141.361679 
z"/>
<path fill="#D3DEDF" opacity="1.000000" stroke="none" 
	d="
M135.882050,148.654465 
	C133.489746,147.434204 130.890274,145.921448 128.118027,144.089661 
	C133.210098,140.775208 133.685883,145.842346 135.882050,148.654465 
z"/>
<path fill="#E2E9EA" opacity="1.000000" stroke="none" 
	d="
M136.849045,142.357086 
	C136.934219,142.752655 136.836105,143.087814 136.737976,143.422958 
	C136.590103,143.369019 136.442215,143.315094 136.294327,143.261169 
	C136.418137,142.939667 136.541931,142.618164 136.849045,142.357086 
z"/>
<path fill="#A4BEC1" opacity="1.000000" stroke="none" 
	d="
M150.109970,108.112183 
	C147.996262,105.805931 142.850342,109.245773 143.439011,103.472763 
	C145.768173,103.676491 147.713181,104.110039 149.599060,104.724937 
	C162.088776,108.797249 169.947723,117.180779 172.803680,130.194717 
	C172.108597,130.610535 171.610321,130.833466 171.112030,131.056396 
	C170.346848,130.018784 169.269836,129.089508 168.865784,127.926437 
	C165.626999,118.603806 159.107239,112.446831 150.109970,108.112183 
z"/>
<path fill="#A4BEC1" opacity="1.000000" stroke="none" 
	d="
M175.029312,144.525085 
	C174.374115,147.755203 173.718918,150.985336 172.693604,154.641479 
	C169.545593,158.054382 166.767685,161.041275 163.989792,164.028168 
	C162.700928,162.244949 161.412064,160.461731 160.061234,158.339249 
	C162.747192,154.578842 165.539413,151.191895 168.221786,147.720078 
	C169.332993,146.281845 170.209167,144.662018 171.853821,143.238770 
	C173.353363,143.743530 174.191330,144.134308 175.029312,144.525085 
z"/>
<path fill="#F4F7F8" opacity="1.000000" stroke="none" 
	d="
M175.310913,144.249039 
	C174.191330,144.134308 173.353363,143.743530 172.206848,143.191162 
	C171.894470,142.571030 171.890610,142.112488 172.038452,141.054688 
	C171.822113,139.241638 171.454056,138.027863 171.085999,136.814087 
	C170.973724,135.093307 170.861435,133.372543 170.930603,131.354080 
	C171.610321,130.833466 172.108597,130.610535 173.083710,130.290771 
	C174.335037,133.521271 175.109528,136.848618 175.884003,140.175964 
	C175.786850,141.441635 175.689682,142.707321 175.310913,144.249039 
z"/>
<path fill="#A4BEC1" opacity="1.000000" stroke="none" 
	d="
M170.953278,137.117920 
	C171.454056,138.027863 171.822113,139.241638 172.023834,140.711121 
	C171.511856,139.785141 171.166214,138.603439 170.953278,137.117920 
z"/>
<path fill="#9BB9BC" opacity="1.000000" stroke="none" 
	d="
M176.061432,139.789429 
	C175.109528,136.848618 174.335037,133.521271 173.280518,130.097870 
	C169.947723,117.180779 162.088776,108.797249 149.599060,104.724937 
	C147.713181,104.110039 145.768173,103.676491 143.485809,103.075569 
	C143.199966,102.152809 143.278839,101.313545 143.544067,100.218025 
	C161.297256,101.559952 177.012100,117.629372 176.964310,134.030243 
	C176.959091,135.821808 176.491821,137.612030 176.061432,139.789429 
z"/>
<path fill="#C9D7D9" opacity="1.000000" stroke="none" 
	d="
M156.706009,131.030045 
	C156.399643,131.222855 155.731308,131.414581 154.979858,131.351318 
	C155.379181,131.073868 155.861618,131.051422 156.706009,131.030045 
z"/>
<path fill="#9BB9BC" opacity="1.000000" stroke="none" 
	d="
M164.135986,164.287903 
	C166.767685,161.041275 169.545593,158.054382 172.686966,155.037979 
	C173.657593,155.802750 174.264740,156.597031 174.935028,157.694885 
	C172.021729,160.616882 169.045303,163.235321 165.858383,166.178299 
	C165.192642,165.851105 164.737411,165.199371 164.135986,164.287903 
z"/>
</svg>