<svg xmlns="http://www.w3.org/2000/svg" width="48" height="48" viewBox="0 0 48 48">
    <defs>
      <radialGradient id="paint0_radial_2280_119090" cx="0" cy="0" r="1" gradientUnits="userSpaceOnUse" gradientTransform="translate(24.0234 21.2469) rotate(-142.006) scale(33.4402 32.3913)">
        <stop offset="0.36272" stop-color="#00E6DC"/>
        <stop offset="0.503125" stop-color="#00FFB9"/>
        <stop offset="1" stop-color="#00BEDC"/>
      </radialGradient>
    </defs>
    <path fill="url(#paint0_radial_2280_119090)" d="M38.35 20.04C37.67 16.59 34.64 14 31 14 28.11 14 25.6 15.64 24.35 18.04 21.34 18.36 19 20.91 19 24c0 3.31 2.69 6 6 6h13c2.76 0 5-2.24 5-5 0-2.64-2.05-4.78-4.65-4.96zM31 16c2.21 0 4 1.79 4 4s-1.79 4-4 4-4-1.79-4-4 1.79-4 4-4zm7 12H25c-1.66 0-3-1.34-3-3s1.34-3 3-3h12c1.66 0 3 1.34 3 3s-1.34 3-3 3z"/>
    <path fill="url(#paint0_radial_2280_119090)" d="M31 21c.55 0 1 .45 1 1v3h-2v-3c0-.55.45-1 1-1z"/>
  </svg>