<svg version="1.1" id="Layer_1" xmlns="http://www.w3.org/2000/svg" xmlns:xlink="http://www.w3.org/1999/xlink" x="0px" y="0px"
	 width="100%" viewBox="0 0 859 272" enable-background="new 0 0 859 272" xml:space="preserve">
<path fill="#000000" opacity="1.000000" stroke="none" 
	d="
M369.000000,273.000000 
	C299.979095,273.000000 230.958206,273.000000 161.375885,272.598938 
	C161.311676,271.822479 161.768173,271.196442 162.312088,271.107971 
	C180.090744,268.216492 196.461700,261.558411 211.390808,251.699966 
	C219.537903,246.320068 226.893097,239.740952 233.699921,234.411621 
	C222.355820,222.963196 211.762314,212.272263 201.159119,201.571548 
	C160.560654,239.185059 104.967751,235.467728 70.669472,198.918488 
	C38.349648,164.477509 37.086739,114.054771 68.587662,77.124138 
	C84.670006,58.269741 105.990440,47.954441 130.628983,46.179195 
	C158.021866,44.205505 181.557983,54.115051 201.208801,72.652626 
	C212.130981,61.738441 222.842346,51.034904 233.847992,40.037285 
	C231.436584,38.045036 228.839127,36.023613 226.379150,33.846832 
	C208.104553,17.676069 186.957672,7.436804 162.991821,2.919837 
	C162.234192,2.777043 161.659821,1.661865 161.000000,0.999998 
	C230.020889,1.000000 299.041779,1.000000 368.531342,1.468657 
	C369.000000,26.585344 369.000000,51.233376 369.000000,76.157051 
	C382.767609,76.157051 395.866760,76.157051 408.708740,76.474167 
	C404.864410,77.198814 401.179077,77.212288 397.705994,78.077499 
	C374.336548,83.899185 359.568176,98.689804 352.668060,121.639854 
	C349.172821,133.265213 349.120026,145.034286 351.033691,156.848694 
	C354.193176,176.354370 364.329590,191.429810 381.569580,200.949219 
	C388.404785,204.723419 396.466003,206.277298 403.507446,208.915466 
	C391.816345,208.988846 380.586853,208.988846 369.000000,208.988846 
	C369.000000,230.619308 369.000000,251.809662 369.000000,273.000000 
M166.245041,206.422623 
	C166.162140,207.228271 165.765091,208.181381 166.060013,208.809662 
	C166.727249,210.231125 167.735901,211.492294 168.605682,212.818634 
	C169.728516,211.760849 171.190689,210.884491 171.880096,209.594986 
	C172.589706,208.267700 172.545853,206.537598 173.152084,204.351242 
	C173.582031,202.383408 174.011978,200.415573 174.441910,198.447739 
	C173.603333,198.108368 172.764755,197.768997 171.926163,197.429611 
	C170.245621,200.273911 168.565063,203.118210 166.245041,206.422623 
M117.998001,119.837013 
	C117.612732,121.820763 117.227470,123.804512 116.820122,125.901993 
	C117.689659,125.941620 118.793900,125.991943 119.781815,126.709366 
	C118.897194,127.261856 118.012573,127.814346 118.313660,127.626305 
	C119.016411,130.322433 119.517784,132.245956 119.512497,134.035889 
	C119.343231,134.078979 119.173965,134.122055 118.261871,134.014877 
	C117.508934,134.065979 116.756004,134.117096 115.199028,134.035965 
	C114.474945,136.951248 113.265785,139.884399 113.372086,142.769089 
	C113.398254,143.479248 115.927567,144.825729 114.332108,147.148407 
	C113.853577,147.749969 113.375046,148.351547 112.261147,149.225891 
	C111.889816,150.006821 111.518494,150.787735 110.661919,151.903534 
	C109.736145,152.921921 108.810364,153.940308 107.246651,155.278809 
	C106.555855,156.729202 105.865067,158.179611 105.020798,160.295471 
	C104.973907,162.185760 104.927025,164.076050 104.264351,166.286926 
	C106.597397,174.681473 111.149437,178.246567 119.816910,177.969131 
	C124.664001,175.994110 128.531418,178.018677 131.884689,181.602249 
	C131.978058,182.732056 132.071426,183.861862 132.203964,185.661560 
	C132.761108,186.789078 133.318253,187.916595 133.970108,189.763397 
	C134.605591,191.499146 135.241074,193.234879 135.245071,195.334641 
	C134.886078,197.218842 134.527069,199.103027 134.027420,201.755157 
	C134.313721,203.185379 134.600037,204.615601 134.971573,206.769775 
	C135.273804,207.860931 135.576050,208.952087 135.971603,210.782272 
	C136.369049,212.184341 136.766495,213.586395 137.289764,215.716705 
	C140.000443,220.888565 150.584488,221.889984 154.155762,217.227859 
	C154.785980,216.405136 154.807938,215.116440 155.719727,213.737976 
	C156.756653,211.821777 157.793564,209.905579 158.957977,207.302994 
	C159.320587,206.236435 159.683197,205.169876 160.790253,203.983200 
	C165.038116,202.785385 165.362137,199.603348 164.723938,195.310425 
	C164.185806,193.889038 163.647675,192.467667 163.703903,190.708664 
	C166.841080,186.819031 169.978256,182.929398 173.750641,178.660706 
	C174.231110,176.626801 174.711578,174.592896 175.114075,172.889023 
	C172.949097,172.889023 171.501923,172.889023 170.327484,172.244751 
	C173.255157,170.816803 176.257492,169.521683 179.092285,167.928467 
	C182.935974,165.768280 184.068954,162.085846 182.779785,159.019318 
	C183.517792,158.957870 184.255798,158.896408 185.786057,158.977448 
	C186.855286,158.929214 187.924530,158.880966 189.565750,159.096924 
	C190.361801,159.764587 191.157867,160.432236 192.013443,161.822388 
	C193.330231,162.582855 194.647003,163.343338 196.005280,164.690308 
	C196.297333,165.143372 196.589386,165.596420 196.968430,166.835373 
	C197.629593,168.923584 198.290756,171.011795 198.992477,173.851440 
	C200.128586,175.408401 201.264679,176.965378 202.400787,178.522339 
	C202.853363,178.303833 203.305939,178.085312 203.758499,177.866806 
	C204.520386,174.947784 205.282272,172.028763 206.653320,168.827499 
	C208.451508,167.256851 210.249680,165.686218 212.783936,163.997833 
	C216.842743,163.075897 217.261276,159.472092 217.898956,156.423660 
	C220.793884,142.584503 220.914673,128.787247 217.035370,115.028488 
	C212.842331,100.157013 205.708649,87.052765 194.074799,76.773888 
	C191.155701,74.194771 187.383011,71.849342 182.299606,74.352249 
	C182.164444,75.552887 182.029266,76.753532 181.312988,78.330566 
	C181.839218,80.534241 182.365463,82.737915 182.274277,84.980080 
	C181.863693,84.949783 181.453110,84.919487 180.686615,84.293381 
	C179.300140,83.794830 177.913681,83.296280 176.483002,82.781837 
	C176.265076,84.288200 176.128967,85.229073 175.220963,86.042229 
	C173.355362,86.417755 171.489777,86.793274 168.862381,87.145752 
	C167.520294,87.260498 166.018204,87.819016 164.867111,87.404007 
	C161.821426,86.305939 161.846619,87.885818 162.029755,90.630798 
	C162.004745,91.055229 161.979721,91.479660 161.367264,91.807434 
	C160.948334,91.189842 160.529404,90.572243 159.828598,89.324226 
	C157.419815,84.867966 151.149155,85.297295 148.750534,80.591530 
	C148.409714,79.922874 145.257645,79.789299 144.246765,80.539688 
	C141.855682,82.314636 139.970215,84.770683 137.283783,87.270279 
	C136.485077,88.831299 135.686371,90.392311 134.275848,92.283035 
	C133.475922,94.175125 132.675980,96.067215 131.313187,98.211349 
	C130.861313,99.106209 130.409424,100.001068 129.188339,101.020386 
	C128.516754,103.349785 127.845169,105.679184 127.040108,108.734932 
	C128.319305,110.142380 129.598511,111.549828 130.232834,113.294762 
	C130.543091,114.865936 130.853348,116.437103 130.852859,118.647369 
	C128.938461,119.748383 127.024063,120.849388 125.008514,121.214828 
	C123.686592,119.442001 122.364677,117.669174 121.008591,115.111717 
	C120.542122,113.368034 120.075653,111.624352 119.432961,109.221939 
	C115.937889,112.235550 116.238235,116.892281 112.354752,118.585434 
	C111.792976,118.830353 112.564957,122.134460 112.719742,124.022926 
	C113.295464,124.119690 113.871178,124.216461 114.446892,124.313232 
	C115.595467,122.555611 116.744049,120.797989 117.998001,119.837013 
M91.708038,101.978409 
	C94.073494,102.180923 96.438942,102.383446 99.377251,102.635010 
	C98.558258,99.848366 97.839523,97.402870 97.028046,94.160728 
	C96.368057,92.739647 95.708061,91.318565 95.386559,89.264603 
	C98.130768,87.593704 101.836266,86.413620 99.266945,81.298851 
	C98.879509,79.848030 98.492065,78.397217 97.992813,76.251686 
	C96.678070,75.134880 95.363327,74.018066 94.414978,72.278625 
	C96.951935,70.840172 99.488892,69.401726 102.011108,68.733864 
	C102.990852,69.528221 103.970589,70.322578 105.222466,71.635124 
	C105.781044,71.769463 106.339622,71.903801 106.985680,72.818939 
	C106.954193,73.865211 106.922699,74.911476 106.229118,76.309601 
	C105.875816,78.209106 105.522514,80.108604 104.837158,82.661758 
	C104.538704,84.809708 104.240250,86.957649 103.990601,89.871162 
	C104.475990,91.309921 104.961388,92.748680 105.187660,93.419395 
	C109.544617,90.665077 112.965492,87.327164 116.978889,86.296463 
	C120.980713,85.268730 122.157402,83.571037 122.714745,79.711800 
	C123.420212,78.143806 124.125671,76.575821 125.178871,74.332588 
	C125.394577,72.892204 125.610283,71.451813 126.132469,69.406311 
	C126.699013,68.273979 127.265556,67.141655 128.166565,65.435493 
	C129.389328,64.292419 130.612106,63.149345 131.961243,61.283165 
	C130.614700,57.740654 127.405205,59.671341 125.404976,58.295696 
	C126.698807,57.289146 127.992638,56.282600 129.286469,55.276054 
	C128.929474,54.785755 128.572464,54.295456 128.215469,53.805161 
	C125.199257,54.707638 122.238487,56.031029 119.156868,56.436932 
	C108.080566,57.895882 98.237206,61.320843 90.555298,70.183922 
	C88.854347,72.146393 84.044174,71.358162 84.829308,76.138573 
	C84.830276,76.144478 84.617195,76.185539 84.367317,76.239983 
	C84.109093,75.328651 83.848511,74.408958 83.532616,73.294090 
	C75.304077,80.152580 68.757629,87.840057 63.759884,96.804443 
	C61.726017,100.452560 61.517349,103.813431 65.989990,106.762589 
	C67.294060,108.190826 68.598137,109.619064 70.156693,111.597260 
	C71.172073,112.165741 72.187454,112.734222 73.189941,114.051620 
	C74.264351,114.368530 75.338768,114.685448 76.413177,115.002357 
	C75.978836,114.319237 75.544495,113.636124 75.163559,112.425133 
	C75.453583,111.990395 75.743607,111.555664 76.716141,111.273544 
	C78.534882,112.646790 80.353615,114.020035 82.172356,115.393280 
	C79.492157,108.600800 80.495361,107.610947 84.687408,105.652588 
	C86.795006,104.379128 88.902611,103.105667 91.708038,101.978409 
M69.391327,170.836075 
	C66.132935,168.611313 62.874538,166.386536 59.616146,164.161758 
	C59.297634,164.478714 58.979122,164.795670 58.660610,165.112625 
	C63.339973,178.786316 71.110268,190.353058 82.520065,199.539963 
	C83.099251,196.808609 83.603493,194.430710 84.738548,191.723114 
	C88.310829,186.315704 87.987236,185.655975 82.161484,181.958267 
	C79.245117,180.107193 76.738899,177.592255 74.124992,175.289246 
	C72.670303,174.007568 71.375450,172.544464 69.391327,170.836075 
M304.009521,112.488876 
	C306.331390,110.660263 308.554260,108.685562 310.994629,107.031815 
	C317.072632,102.913010 324.044769,103.854477 330.764709,104.055916 
	C345.337616,104.492744 346.324432,100.353035 345.957794,87.573059 
	C345.921204,86.297203 345.167572,85.047508 345.095459,83.766045 
	C344.862701,79.630096 342.665527,77.040504 338.681519,76.936272 
	C329.982178,76.708687 321.137878,75.990631 312.589813,77.178543 
	C289.735199,80.354630 274.557709,94.225922 265.098419,114.541664 
	C258.999420,127.640457 258.851837,141.655472 260.964783,155.758453 
	C264.106537,176.728088 276.057587,191.488937 293.849487,201.902054 
	C307.325195,209.789047 322.347717,209.418930 337.257355,208.903091 
	C340.683624,208.784546 344.209015,207.204056 344.612183,203.458206 
	C345.181580,198.167389 345.343719,192.665359 344.448120,187.465820 
	C344.084564,185.355225 340.703217,182.699081 338.309601,182.221069 
	C333.019348,181.164642 327.482574,181.362854 322.051025,180.982422 
	C320.264282,180.857269 318.440521,180.718826 316.721161,180.259140 
	C302.735657,176.519897 290.004333,159.098251 290.115601,142.749817 
	C290.195007,131.091171 294.675812,120.950279 304.009521,112.488876 
M139.140274,68.792755 
	C139.148666,70.693283 139.021591,72.608719 139.228363,74.487419 
	C139.318100,75.302658 140.095062,76.042259 140.559875,76.816208 
	C141.327042,76.344261 142.274963,76.019798 142.812744,75.360687 
	C143.401581,74.639008 143.763718,73.639572 143.955902,72.705864 
	C144.388077,70.606178 149.502655,69.823479 146.035751,67.021370 
	C144.931976,66.129250 141.819321,67.722626 139.140274,68.792755 
M168.837463,72.739113 
	C169.213867,75.752571 169.590256,78.766022 170.036728,82.340355 
	C175.041275,79.443558 174.642319,75.116333 170.364853,70.543922 
	C170.014954,71.085388 169.665039,71.626846 168.837463,72.739113 
M175.777573,63.627697 
	C174.527618,62.993107 173.277679,62.358513 170.413712,60.904495 
	C170.771988,64.374367 170.256851,67.684204 171.340378,68.335854 
	C174.702805,70.358047 174.191620,66.143982 175.574631,64.806976 
	C175.688309,64.697090 175.742706,64.525909 175.777573,63.627697 
z"/>
<path fill="#FFFFFF" opacity="1.000000" stroke="none" 
	d="
M408.965912,76.157051 
	C395.866760,76.157051 382.767609,76.157051 369.000000,76.157051 
	C369.000000,51.233376 369.000000,26.585344 369.000000,1.468657 
	C532.666687,1.000000 696.333374,1.000000 860.000000,1.000000 
	C860.000000,25.767467 860.000000,50.415073 859.543091,75.531342 
	C855.736084,76.052078 852.385986,76.104156 848.569275,76.088661 
	C833.057068,76.066299 818.011536,76.111511 802.502441,76.083969 
	C769.038513,76.059364 736.038147,76.107513 702.584229,76.088577 
	C699.075867,76.066559 696.020874,76.111641 692.502808,76.083984 
	C663.705505,76.059425 635.371460,76.107613 606.578003,76.088593 
	C602.401123,76.066513 598.683594,76.111649 594.502930,76.084015 
	C568.039001,76.059425 542.038147,76.107613 515.578003,76.088585 
	C511.401093,76.066505 507.683563,76.111626 503.502930,76.084000 
	C475.039062,76.059387 447.038330,76.107544 418.583405,76.088577 
	C415.074768,76.066650 412.020325,76.111855 408.965912,76.157051 
z"/>
<path fill="#FFFFFF" opacity="1.000000" stroke="none" 
	d="
M369.468658,273.000000 
	C369.000000,251.809662 369.000000,230.619308 369.000000,208.988846 
	C380.586853,208.988846 391.816345,208.988846 403.971375,208.984039 
	C411.275940,208.933914 417.654938,208.888580 424.497467,208.916016 
	C449.628448,208.940506 474.295929,208.892242 499.407593,208.911194 
	C502.245575,208.933289 504.639404,208.888153 507.496399,208.915894 
	C522.627441,208.940536 537.295227,208.892319 552.401245,208.911270 
	C554.903992,208.933304 556.968628,208.888168 559.496460,208.915894 
	C574.627563,208.940491 589.295532,208.892242 604.407654,208.911194 
	C607.245667,208.933273 609.639465,208.888153 612.496826,208.915894 
	C637.961121,208.940598 662.961792,208.892426 688.429138,208.911606 
	C695.608459,208.933716 702.321228,208.888489 709.497070,208.916016 
	C730.961548,208.940445 751.962769,208.892120 773.430664,208.911346 
	C791.276123,208.933685 808.655029,208.888458 826.497070,208.916000 
	C837.973511,208.992508 848.986755,208.996246 860.000000,209.000000 
	C860.000000,230.316513 860.000000,251.633011 860.000000,273.000000 
	C696.645752,273.000000 533.291565,273.000000 369.468658,273.000000 
z"/>
<path fill="#118187" opacity="1.000000" stroke="none" 
	d="
M160.531342,0.999998 
	C161.659821,1.661865 162.234192,2.777043 162.991821,2.919837 
	C186.957672,7.436804 208.104553,17.676069 226.379150,33.846832 
	C228.839127,36.023613 231.436584,38.045036 233.847992,40.037285 
	C222.842346,51.034904 212.130981,61.738441 201.208801,72.652626 
	C181.557983,54.115051 158.021866,44.205505 130.628983,46.179195 
	C105.990440,47.954441 84.670006,58.269741 68.587662,77.124138 
	C37.086739,114.054771 38.349648,164.477509 70.669472,198.918488 
	C104.967751,235.467728 160.560654,239.185059 201.159119,201.571548 
	C211.762314,212.272263 222.355820,222.963196 233.699921,234.411621 
	C226.893097,239.740952 219.537903,246.320068 211.390808,251.699966 
	C196.461700,261.558411 180.090744,268.216492 162.312088,271.107971 
	C161.768173,271.196442 161.311676,271.822479 160.907227,272.598938 
	C145.312439,273.000000 129.624878,273.000000 113.561432,272.598938 
	C112.849243,271.857422 112.555939,271.280212 112.170540,271.210236 
	C80.566986,265.472717 54.464554,250.298355 33.438141,226.016998 
	C17.686497,207.826935 7.659907,186.997955 2.936981,163.489227 
	C2.751704,162.567001 1.666093,161.825638 0.999998,161.000000 
	C1.000000,145.312439 1.000000,129.624878 1.401065,113.561424 
	C2.142577,112.849228 2.719795,112.555908 2.789765,112.170502 
	C8.527294,80.566963 23.701614,54.464523 47.983017,33.438133 
	C66.173073,17.686514 87.002037,7.659898 110.510765,2.936984 
	C111.433006,2.751706 112.174362,1.666099 113.000000,1.000001 
	C128.687561,1.000000 144.375122,1.000000 160.531342,0.999998 
z"/>
<path fill="#118187" opacity="1.000000" stroke="none" 
	d="
M826.033936,208.843231 
	C808.655029,208.888458 791.276123,208.933685 773.241455,208.611603 
	C771.390625,206.104294 769.547241,204.076538 769.152832,201.797958 
	C768.565125,198.403015 768.996948,194.831070 769.000610,191.334442 
	C769.007507,184.804718 771.702454,182.026184 778.185608,182.009079 
	C790.173950,181.977463 802.174011,182.306747 814.145508,181.856735 
	C819.317993,181.662292 825.321228,181.698456 827.838684,175.314056 
	C829.773804,170.406723 826.995911,162.665131 821.369385,159.211792 
	C811.302063,153.032837 800.714966,147.673111 790.853027,141.197495 
	C784.747253,137.188309 778.651367,132.473312 774.219177,126.777161 
	C768.398682,119.296700 769.577271,110.205452 771.768799,101.268616 
	C774.055664,91.943375 779.249268,85.128113 787.786926,81.175163 
	C792.591187,78.950768 797.889954,77.794296 802.965942,76.156723 
	C818.011536,76.111511 833.057068,76.066299 848.758423,76.388397 
	C850.609314,78.897987 852.429138,80.925339 852.849365,83.210121 
	C853.442383,86.434059 853.008118,89.848503 852.998352,93.181458 
	C852.977112,100.417198 850.401245,102.988686 843.128052,102.996864 
	C832.252197,103.009094 821.375366,102.919189 810.500854,103.038521 
	C805.853394,103.089516 801.549438,104.591187 799.536987,109.119003 
	C797.526001,113.643501 800.077271,117.091415 803.447510,119.910622 
	C805.203918,121.379845 807.002197,122.889557 809.007874,123.954758 
	C818.322693,128.901871 827.845276,133.470001 837.044678,138.618393 
	C845.560791,143.384384 853.739807,148.725769 858.119202,158.097061 
	C858.347046,158.584534 859.355164,158.707382 860.000000,159.000000 
	C860.000000,167.020905 860.000000,175.041809 859.633301,183.410767 
	C855.647034,191.116455 851.572449,198.357971 844.050720,202.197495 
	C838.389526,205.087357 832.063843,206.675613 826.033936,208.843231 
z"/>
<path fill="#000000" opacity="1.000000" stroke="none" 
	d="
M112.531342,1.000001 
	C112.174362,1.666099 111.433006,2.751706 110.510765,2.936984 
	C87.002037,7.659898 66.173073,17.686514 47.983017,33.438133 
	C23.701614,54.464523 8.527294,80.566963 2.789765,112.170502 
	C2.719795,112.555908 2.142577,112.849228 1.401065,113.092766 
	C1.000000,75.739716 1.000000,38.479435 1.000000,1.000000 
	C38.020607,1.000000 75.041641,1.000000 112.531342,1.000001 
z"/>
<path fill="#000000" opacity="1.000000" stroke="none" 
	d="
M0.999998,161.468658 
	C1.666093,161.825638 2.751704,162.567001 2.936981,163.489227 
	C7.659907,186.997955 17.686497,207.826935 33.438141,226.016998 
	C54.464554,250.298355 80.566986,265.472717 112.170540,271.210236 
	C112.555939,271.280212 112.849243,271.857422 113.092773,272.598938 
	C75.739716,273.000000 38.479424,273.000000 1.000000,273.000000 
	C1.000000,235.979401 1.000000,198.958359 0.999998,161.468658 
z"/>
<path fill="#000000" opacity="1.000000" stroke="none" 
	d="
M860.000000,158.531342 
	C859.355164,158.707382 858.347046,158.584534 858.119202,158.097061 
	C853.739807,148.725769 845.560791,143.384384 837.044678,138.618393 
	C827.845276,133.470001 818.322693,128.901871 809.007874,123.954758 
	C807.002197,122.889557 805.203918,121.379845 803.447510,119.910622 
	C800.077271,117.091415 797.526001,113.643501 799.536987,109.119003 
	C801.549438,104.591187 805.853394,103.089516 810.500854,103.038521 
	C821.375366,102.919189 832.252197,103.009094 843.128052,102.996864 
	C850.401245,102.988686 852.977112,100.417198 852.998352,93.181458 
	C853.008118,89.848503 853.442383,86.434059 852.849365,83.210121 
	C852.429138,80.925339 850.609314,78.897987 849.225098,76.455978 
	C852.385986,76.104156 855.736084,76.052078 859.543091,76.000000 
	C860.000000,103.354225 860.000000,130.708450 860.000000,158.531342 
z"/>
<path fill="#000000" opacity="1.000000" stroke="none" 
	d="
M826.497070,208.915985 
	C832.063843,206.675613 838.389526,205.087357 844.050720,202.197495 
	C851.572449,198.357971 855.647034,191.116455 859.633301,183.879410 
	C860.000000,192.020905 860.000000,200.041809 860.000000,208.531342 
	C848.986755,208.996246 837.973511,208.992508 826.497070,208.915985 
z"/>
<path fill="#118187" opacity="1.000000" stroke="none" 
	d="
M424.033966,208.843246 
	C417.654938,208.888580 411.275940,208.933914 404.432983,208.910660 
	C396.466003,206.277298 388.404785,204.723419 381.569580,200.949219 
	C364.329590,191.429810 354.193176,176.354370 351.033691,156.848694 
	C349.120026,145.034286 349.172821,133.265213 352.668060,121.639854 
	C359.568176,98.689804 374.336548,83.899185 397.705994,78.077499 
	C401.179077,77.212288 404.864410,77.198814 408.708740,76.474167 
	C412.020325,76.111855 415.074768,76.066650 418.835632,76.405670 
	C446.421631,78.014084 466.262604,94.390091 474.617737,119.440018 
	C478.466278,130.978516 478.933319,142.946381 477.070618,155.078720 
	C474.420807,172.337280 466.499054,186.329147 452.747894,197.090637 
	C444.264587,203.729599 434.364044,206.780899 424.033966,208.843246 
M433.392578,179.079315 
	C435.911469,177.236740 438.762848,175.714142 440.894653,173.499069 
	C453.619537,160.276825 454.637634,144.105209 450.100616,127.802261 
	C444.688477,108.354630 427.786560,100.096642 408.500427,102.164711 
	C394.362244,103.680763 384.002960,111.248512 378.776611,124.745102 
	C375.802887,132.424530 374.983307,140.327423 375.790070,148.799469 
	C377.739990,169.276520 391.783844,183.336121 412.765015,183.749634 
	C419.423920,183.880875 426.140991,181.062668 433.392578,179.079315 
z"/>
<path fill="#118187" opacity="1.000000" stroke="none" 
	d="
M303.756775,112.742798 
	C294.675812,120.950279 290.195007,131.091171 290.115601,142.749817 
	C290.004333,159.098251 302.735657,176.519897 316.721161,180.259140 
	C318.440521,180.718826 320.264282,180.857269 322.051025,180.982422 
	C327.482574,181.362854 333.019348,181.164642 338.309601,182.221069 
	C340.703217,182.699081 344.084564,185.355225 344.448120,187.465820 
	C345.343719,192.665359 345.181580,198.167389 344.612183,203.458206 
	C344.209015,207.204056 340.683624,208.784546 337.257355,208.903091 
	C322.347717,209.418930 307.325195,209.789047 293.849487,201.902054 
	C276.057587,191.488937 264.106537,176.728088 260.964783,155.758453 
	C258.851837,141.655472 258.999420,127.640457 265.098419,114.541664 
	C274.557709,94.225922 289.735199,80.354630 312.589813,77.178543 
	C321.137878,75.990631 329.982178,76.708687 338.681519,76.936272 
	C342.665527,77.040504 344.862701,79.630096 345.095459,83.766045 
	C345.167572,85.047508 345.921204,86.297203 345.957794,87.573059 
	C346.324432,100.353035 345.337616,104.492744 330.764709,104.055916 
	C324.044769,103.854477 317.072632,102.913010 310.994629,107.031815 
	C308.554260,108.685562 306.331390,110.660263 303.756775,112.742798 
z"/>
<path fill="#8FB1B5" opacity="1.000000" stroke="none" 
	d="
M132.165970,180.993942 
	C128.531418,178.018677 124.664001,175.994110 119.364380,177.564499 
	C114.234604,173.428696 109.557373,169.697510 104.880135,165.966339 
	C104.927025,164.076050 104.973907,162.185760 105.466812,160.117340 
	C108.338097,162.189255 110.730125,164.476410 113.194359,166.682922 
	C124.018944,176.375443 136.304276,179.211075 150.459976,175.430649 
	C158.245834,173.351349 163.798279,168.596359 169.320862,162.959259 
	C170.094482,162.278595 170.547256,161.639297 171.000732,160.750763 
	C171.001450,160.501526 171.001831,160.003052 171.341980,159.968170 
	C172.454346,158.955338 173.226562,157.977386 173.999573,156.624969 
	C174.001007,155.501541 174.001648,154.752609 174.369873,153.958771 
	C175.530792,152.959991 176.649323,152.130508 177.068939,151.033630 
	C183.980713,132.966202 175.485962,111.017387 158.329971,102.124939 
	C149.941544,97.776962 141.051819,97.072243 131.876053,97.959305 
	C132.675980,96.067215 133.475922,94.175125 135.048874,92.132332 
	C143.546707,93.322205 151.271530,94.662781 159.034607,96.351578 
	C160.493362,98.007858 161.869736,99.368164 163.343857,100.612709 
	C166.110214,102.948235 169.337234,104.869682 171.660797,107.574814 
	C180.538757,117.910690 185.063461,129.824402 182.953995,143.601791 
	C181.300613,154.400360 176.611938,163.803421 168.141647,170.865707 
	C157.731522,179.545364 145.677704,183.016418 132.165970,180.993942 
z"/>
<path fill="#158288" opacity="1.000000" stroke="none" 
	d="
M65.900475,106.040222 
	C61.517349,103.813431 61.726017,100.452560 63.759884,96.804443 
	C68.757629,87.840057 75.304077,80.152580 83.532616,73.294090 
	C83.848511,74.408958 84.109093,75.328651 84.367317,76.239983 
	C84.617195,76.185539 84.830276,76.144478 84.829308,76.138573 
	C84.044174,71.358162 88.854347,72.146393 90.555298,70.183922 
	C98.237206,61.320843 108.080566,57.895882 119.156868,56.436932 
	C122.238487,56.031029 125.199257,54.707638 128.215469,53.805161 
	C128.572464,54.295456 128.929474,54.785755 129.286469,55.276054 
	C127.992638,56.282600 126.698807,57.289146 124.909897,58.773926 
	C117.331673,61.836216 110.248535,64.420273 102.979950,66.759415 
	C102.528320,67.023041 102.262131,67.531593 101.992363,68.016586 
	C101.988785,67.993019 102.025848,67.963280 102.025848,67.963280 
	C99.488892,69.401726 96.951935,70.840172 94.083916,72.901566 
	C83.438354,81.989906 74.655167,91.686821 68.927094,103.922203 
	C68.474617,104.888695 66.934906,105.346184 65.900475,106.040222 
z"/>
<path fill="#85ACB0" opacity="1.000000" stroke="none" 
	d="
M132.025330,181.298096 
	C145.677704,183.016418 157.731522,179.545364 168.141647,170.865707 
	C176.611938,163.803421 181.300613,154.400360 182.953995,143.601791 
	C185.063461,129.824402 180.538757,117.910690 171.660797,107.574814 
	C169.337234,104.869682 166.110214,102.948235 163.343857,100.612709 
	C161.869736,99.368164 160.493362,98.007858 159.410645,96.355095 
	C167.533722,98.155289 172.827972,103.525581 177.298645,109.825592 
	C184.099777,119.409607 187.905045,129.941681 185.975769,141.841263 
	C185.032700,147.658066 183.376572,153.359268 182.043182,159.112793 
	C184.068954,162.085846 182.935974,165.768280 179.092285,167.928467 
	C176.257492,169.521683 173.255157,170.816803 170.043457,172.879913 
	C168.418762,174.721848 167.188019,176.086304 165.719696,177.110001 
	C155.590881,184.171753 144.137772,185.715073 132.164810,184.991669 
	C132.071426,183.861862 131.978058,182.732056 132.025330,181.298096 
z"/>
<path fill="#A4BEC1" opacity="1.000000" stroke="none" 
	d="
M107.884590,154.958694 
	C108.810364,153.940308 109.736145,152.921921 111.262779,151.918610 
	C113.945847,154.487808 115.728561,157.379990 118.162857,159.536697 
	C127.923790,168.184525 139.316925,170.804504 151.286224,165.585678 
	C162.438126,160.723251 169.051453,151.742783 170.074493,139.159088 
	C170.190704,137.729630 171.332123,136.383530 172.146271,135.330368 
	C173.192673,138.107834 174.090942,140.553696 174.952225,143.369705 
	C172.644287,148.322586 172.080429,153.433884 168.729645,157.814621 
	C154.960297,175.816376 130.386551,177.962051 115.607758,163.295364 
	C112.921356,160.629349 110.453392,157.743210 107.884590,154.958694 
z"/>
<path fill="#2D888E" opacity="1.000000" stroke="none" 
	d="
M181.894104,77.954170 
	C182.029266,76.753532 182.164444,75.552887 182.909668,74.296967 
	C195.449539,83.354980 205.745361,94.038521 210.512497,108.486244 
	C213.632782,117.942863 216.083176,128.007736 216.413879,137.881226 
	C216.704834,146.567505 213.634033,155.366409 212.047867,164.115570 
	C210.249680,165.686218 208.451508,167.256851 206.340912,168.572617 
	C208.015549,160.647415 211.074615,153.076492 211.796661,145.288879 
	C214.376053,117.468895 203.808228,95.095619 181.894104,77.954170 
z"/>
<path fill="#1D848A" opacity="1.000000" stroke="none" 
	d="
M212.415894,164.056702 
	C213.634033,155.366409 216.704834,146.567505 216.413879,137.881226 
	C216.083176,128.007736 213.632782,117.942863 210.512497,108.486244 
	C205.745361,94.038521 195.449539,83.354980 183.210175,74.092827 
	C187.383011,71.849342 191.155701,74.194771 194.074799,76.773888 
	C205.708649,87.052765 212.842331,100.157013 217.035370,115.028488 
	C220.914673,128.787247 220.793884,142.584503 217.898956,156.423660 
	C217.261276,159.472092 216.842743,163.075897 212.415894,164.056702 
z"/>
<path fill="#3C8C91" opacity="1.000000" stroke="none" 
	d="
M181.603546,78.142365 
	C203.808228,95.095619 214.376053,117.468895 211.796661,145.288879 
	C211.074615,153.076492 208.015549,160.647415 206.036331,168.713745 
	C205.282272,172.028763 204.520386,174.947784 203.758499,177.866806 
	C203.305939,178.085312 202.853363,178.303833 202.400787,178.522339 
	C201.264679,176.965378 200.128586,175.408401 199.113647,173.149597 
	C205.943970,161.809052 208.777374,150.049835 208.961594,137.625214 
	C209.120834,126.882645 206.830826,116.477432 201.850510,107.049126 
	C197.270325,98.378349 192.592133,89.396126 182.891693,84.941597 
	C182.365463,82.737915 181.839218,80.534241 181.603546,78.142365 
z"/>
<path fill="#60999E" opacity="1.000000" stroke="none" 
	d="
M169.624176,87.168808 
	C171.489777,86.793274 173.355362,86.417755 175.651764,86.440277 
	C178.669189,89.340271 181.422668,91.693016 183.815186,94.368538 
	C198.437302,110.720329 204.230423,129.553360 199.380981,151.237213 
	C198.413239,155.564392 197.111511,159.816879 195.963791,164.103806 
	C194.647003,163.343338 193.330231,162.582855 192.132751,161.114822 
	C193.834564,153.533081 196.590836,146.690750 196.778229,139.778748 
	C197.327225,119.529182 189.509018,102.903397 172.803146,90.836166 
	C171.526550,89.914040 170.673889,88.405022 169.624176,87.168808 
z"/>
<path fill="#539499" opacity="1.000000" stroke="none" 
	d="
M195.984528,164.397064 
	C197.111511,159.816879 198.413239,155.564392 199.380981,151.237213 
	C204.230423,129.553360 198.437302,110.720329 183.815186,94.368538 
	C181.422668,91.693016 178.669189,89.340271 176.037689,86.504135 
	C176.128967,85.229073 176.265076,84.288200 176.483002,82.781837 
	C177.913681,83.296280 179.300140,83.794830 180.882248,84.946533 
	C181.704330,86.548820 182.242508,87.572662 182.971954,88.434647 
	C186.893906,93.069191 191.475449,97.273232 194.707138,102.341423 
	C206.648819,121.069336 208.197235,141.059875 200.488083,161.777359 
	C199.876404,163.421143 198.110794,164.635544 196.881439,166.049500 
	C196.589386,165.596420 196.297333,165.143372 195.984528,164.397064 
z"/>
<path fill="#479095" opacity="1.000000" stroke="none" 
	d="
M196.924942,166.442444 
	C198.110794,164.635544 199.876404,163.421143 200.488083,161.777359 
	C208.197235,141.059875 206.648819,121.069336 194.707138,102.341423 
	C191.475449,97.273232 186.893906,93.069191 182.971954,88.434647 
	C182.242508,87.572662 181.704330,86.548820 181.060211,85.244431 
	C181.453110,84.919487 181.863693,84.949783 182.582977,84.960838 
	C192.592133,89.396126 197.270325,98.378349 201.850510,107.049126 
	C206.830826,116.477432 209.120834,126.882645 208.961594,137.625214 
	C208.777374,150.049835 205.943970,161.809052 199.093353,172.773865 
	C198.290756,171.011795 197.629593,168.923584 196.924942,166.442444 
z"/>
<path fill="#7EA8AC" opacity="1.000000" stroke="none" 
	d="
M182.411484,159.066055 
	C183.376572,153.359268 185.032700,147.658066 185.975769,141.841263 
	C187.905045,129.941681 184.099777,119.409607 177.298645,109.825592 
	C172.827972,103.525581 167.533722,98.155289 159.372375,96.006866 
	C151.271530,94.662781 143.546707,93.322205 135.354767,91.967476 
	C135.686371,90.392311 136.485077,88.831299 138.042099,87.124947 
	C141.890381,87.266640 144.998154,87.429993 148.065918,87.871315 
	C152.097244,88.451233 156.097076,89.249992 160.110458,89.954651 
	C160.529404,90.572243 160.948334,91.189842 161.848236,92.139908 
	C186.969955,107.435921 195.438568,132.447556 184.993805,158.834961 
	C184.255798,158.896408 183.517792,158.957870 182.411484,159.066055 
z"/>
<path fill="#99B7BB" opacity="1.000000" stroke="none" 
	d="
M107.565620,155.118744 
	C110.453392,157.743210 112.921356,160.629349 115.607758,163.295364 
	C130.386551,177.962051 154.960297,175.816376 168.729645,157.814621 
	C172.080429,153.433884 172.644287,148.322586 175.204681,143.369583 
	C175.662338,142.999146 175.830551,142.998962 176.142975,143.330566 
	C175.525543,147.109451 174.763901,150.556564 174.002289,154.003662 
	C174.001648,154.752609 174.001007,155.501541 173.659271,156.659271 
	C172.546066,158.046402 171.773956,159.024734 171.001831,160.003052 
	C171.001831,160.003052 171.001450,160.501526 170.679840,160.792084 
	C169.905487,161.721954 169.452744,162.361282 169.000000,163.000610 
	C163.798279,168.596359 158.245834,173.351349 150.459976,175.430649 
	C136.304276,179.211075 124.018944,176.375443 113.194359,166.682922 
	C110.730125,164.476410 108.338097,162.189255 105.543556,159.784607 
	C105.865067,158.179611 106.555855,156.729202 107.565620,155.118744 
z"/>
<path fill="#AFC5C8" opacity="1.000000" stroke="none" 
	d="
M171.998169,134.998779 
	C171.332123,136.383530 170.190704,137.729630 170.074493,139.159088 
	C169.051453,151.742783 162.438126,160.723251 151.286224,165.585678 
	C139.316925,170.804504 127.923790,168.184525 118.162857,159.536697 
	C115.728561,157.379990 113.945847,154.487808 111.505402,151.751175 
	C111.518494,150.787735 111.889816,150.006821 112.889236,149.239014 
	C120.106461,159.172485 128.400314,165.731644 141.248734,165.099289 
	C152.592087,164.541000 162.199310,157.384171 165.989502,145.562485 
	C169.414459,134.879990 165.420334,122.142311 156.655670,115.828842 
	C153.431915,113.506668 150.193115,111.205391 146.967377,108.678604 
	C146.973587,108.462608 146.888321,108.038956 147.263336,108.062103 
	C155.097809,110.418205 161.427231,114.282532 165.197754,121.424362 
	C167.560120,125.898941 169.737701,130.471069 171.999084,134.999725 
	C172.000000,135.000000 171.998169,134.998779 171.998169,134.998779 
z"/>
<path fill="#6C9FA3" opacity="1.000000" stroke="none" 
	d="
M169.243286,87.157280 
	C170.673889,88.405022 171.526550,89.914040 172.803146,90.836166 
	C189.509018,102.903397 197.327225,119.529182 196.778229,139.778748 
	C196.590836,146.690750 193.834564,153.533081 192.102997,160.753571 
	C191.157867,160.432236 190.361801,159.764587 189.332184,158.598785 
	C196.255585,138.917572 194.183716,120.838127 181.607193,104.612724 
	C176.609192,98.164619 170.996704,91.726791 162.163315,90.007164 
	C161.846619,87.885818 161.821426,86.305939 164.867111,87.404007 
	C166.018204,87.819016 167.520294,87.260498 169.243286,87.157280 
z"/>
<path fill="#B8CBCE" opacity="1.000000" stroke="none" 
	d="
M114.886887,146.957397 
	C115.927567,144.825729 113.398254,143.479248 113.372086,142.769089 
	C113.265785,139.884399 114.474945,136.951248 115.600204,134.528595 
	C116.345146,137.792542 116.408073,140.634338 117.082466,143.322739 
	C119.668564,153.631927 131.577759,162.289688 141.225021,160.940567 
	C153.339279,159.246445 163.646164,148.759918 161.972549,137.537598 
	C161.617264,136.139465 161.247635,135.089279 161.168518,133.818604 
	C162.224686,124.923737 152.168671,115.232391 142.092316,114.658775 
	C142.975266,113.528442 143.930161,112.742371 145.218979,112.097961 
	C149.967392,115.031212 155.094086,117.124557 158.653061,120.754837 
	C166.920410,129.187820 167.123718,144.386963 158.782028,154.279861 
	C153.028656,161.103134 139.519379,164.842957 131.381378,161.876251 
	C123.635513,159.052505 119.193436,153.236465 114.886887,146.957397 
z"/>
<path fill="#76A4A8" opacity="1.000000" stroke="none" 
	d="
M162.096527,90.318985 
	C170.996704,91.726791 176.609192,98.164619 181.607193,104.612724 
	C194.183716,120.838127 196.255585,138.917572 189.046188,158.466705 
	C187.924530,158.880966 186.855286,158.929214 185.389923,158.906204 
	C195.438568,132.447556 186.969955,107.435921 162.141968,92.188232 
	C161.979721,91.479660 162.004745,91.055229 162.096527,90.318985 
z"/>
<path fill="#C5D4D6" opacity="1.000000" stroke="none" 
	d="
M125.109665,121.950394 
	C127.024063,120.849388 128.938461,119.748383 131.404205,118.324539 
	C133.011353,117.984390 134.067139,117.967056 135.517044,117.972534 
	C137.902451,117.648491 139.893753,117.301643 142.260025,117.002106 
	C149.908508,119.398773 156.443710,122.557281 158.135757,131.432037 
	C156.788956,135.130219 156.111160,135.047974 153.001373,130.759125 
	C150.846405,123.516762 141.563049,120.703644 136.053650,122.232056 
	C129.013565,124.185089 123.702621,128.918396 123.733147,138.954254 
	C123.012001,140.064529 122.564529,141.052963 121.820190,141.799347 
	C121.021935,139.094711 120.520554,136.632095 120.019165,134.169495 
	C119.517784,132.245956 119.016411,130.322433 118.313660,127.626305 
	C118.012573,127.814346 118.897194,127.261856 120.143539,126.237373 
	C122.040070,124.493721 123.574867,123.222061 125.109665,121.950394 
z"/>
<path fill="#158288" opacity="1.000000" stroke="none" 
	d="
M84.107727,192.052811 
	C83.603493,194.430710 83.099251,196.808609 82.520065,199.539963 
	C71.110268,190.353058 63.339973,178.786316 58.660610,165.112625 
	C58.979122,164.795670 59.297634,164.478714 59.616146,164.161758 
	C62.874538,166.386536 66.132935,168.611313 69.703659,171.363800 
	C73.033302,179.786133 77.412857,186.728622 84.107727,192.052811 
z"/>
<path fill="#B0C6C9" opacity="1.000000" stroke="none" 
	d="
M114.609497,147.052902 
	C119.193436,153.236465 123.635513,159.052505 131.381378,161.876251 
	C139.519379,164.842957 153.028656,161.103134 158.782028,154.279861 
	C167.123718,144.386963 166.920410,129.187820 158.653061,120.754837 
	C155.094086,117.124557 149.967392,115.031212 145.210907,111.813911 
	C144.634872,110.921165 144.400848,110.454140 144.342743,109.893784 
	C144.738007,109.636169 144.894073,109.425095 145.311737,109.093628 
	C146.078125,108.978203 146.519653,108.936394 146.961182,108.894592 
	C150.193115,111.205391 153.431915,113.506668 156.655670,115.828842 
	C165.420334,122.142311 169.414459,134.879990 165.989502,145.562485 
	C162.199310,157.384171 152.592087,164.541000 141.248734,165.099289 
	C128.400314,165.731644 120.106461,159.172485 113.206917,149.102615 
	C113.375046,148.351547 113.853577,147.749969 114.609497,147.052902 
z"/>
<path fill="#97B6B9" opacity="1.000000" stroke="none" 
	d="
M174.369873,153.958771 
	C174.763901,150.556564 175.525543,147.109451 176.152267,142.916275 
	C180.614349,123.082359 163.056351,101.082642 143.050797,100.744392 
	C142.329681,100.667511 141.720184,100.850044 140.664337,101.023590 
	C136.797836,100.975052 133.377686,100.935493 129.957535,100.895927 
	C130.409424,100.001068 130.861313,99.106209 131.594620,98.085327 
	C141.051819,97.072243 149.941544,97.776962 158.329971,102.124939 
	C175.485962,111.017387 183.980713,132.966202 177.068939,151.033630 
	C176.649323,152.130508 175.530792,152.959991 174.369873,153.958771 
z"/>
<path fill="#28878D" opacity="1.000000" stroke="none" 
	d="
M65.945236,106.401405 
	C66.934906,105.346184 68.474617,104.888695 68.927094,103.922203 
	C74.655167,91.686821 83.438354,81.989906 93.900719,73.212875 
	C95.363327,74.018066 96.678070,75.134880 97.729019,76.738113 
	C94.645508,80.095680 91.825783,82.966812 88.645935,85.892776 
	C86.658836,86.095932 85.031868,86.244247 83.404892,86.392570 
	C83.641754,87.580139 83.878609,88.767715 83.801849,90.099144 
	C79.997223,95.790413 76.530136,101.353119 72.999107,106.874931 
	C72.068260,108.330589 70.939880,109.659943 69.902214,111.047295 
	C68.598137,109.619064 67.294060,108.190826 65.945236,106.401405 
z"/>
<path fill="#6FA0A5" opacity="1.000000" stroke="none" 
	d="
M173.115433,179.039764 
	C169.978256,182.929398 166.841080,186.819031 163.004852,190.869736 
	C153.673203,193.532333 145.026825,195.941559 135.876556,194.970627 
	C135.241074,193.234879 134.605591,191.499146 134.397797,189.390930 
	C145.729889,189.735397 156.091156,188.135406 165.586456,182.262924 
	C167.882385,180.842987 170.594620,180.096130 173.115433,179.039764 
z"/>
<path fill="#7CA7AB" opacity="1.000000" stroke="none" 
	d="
M173.433044,178.850235 
	C170.594620,180.096130 167.882385,180.842987 165.586456,182.262924 
	C156.091156,188.135406 145.729889,189.735397 134.350433,189.031281 
	C133.318253,187.916595 132.761108,186.789078 132.184387,185.326614 
	C144.137772,185.715073 155.590881,184.171753 165.719696,177.110001 
	C167.188019,176.086304 168.418762,174.721848 169.907104,173.202057 
	C171.501923,172.889023 172.949097,172.889023 175.114075,172.889023 
	C174.711578,174.592896 174.231110,176.626801 173.433044,178.850235 
z"/>
<path fill="#C3D3D4" opacity="1.000000" stroke="none" 
	d="
M119.765831,134.102692 
	C120.520554,136.632095 121.021935,139.094711 121.686172,142.119400 
	C122.884285,143.079849 123.919563,143.478210 124.970230,144.251129 
	C126.576805,150.289169 131.035294,152.887268 136.188034,153.732697 
	C140.797180,154.488937 145.908051,154.940063 149.423340,149.931305 
	C151.198639,150.375137 152.596649,150.769989 153.950806,151.505890 
	C150.636581,157.479874 139.058350,160.192734 131.144104,156.788788 
	C122.334267,152.999649 116.721001,140.526901 119.004707,134.165115 
	C119.173965,134.122055 119.343231,134.078979 119.765831,134.102692 
z"/>
<path fill="#5C989D" opacity="1.000000" stroke="none" 
	d="
M135.560822,195.152634 
	C145.026825,195.941559 153.673203,193.532333 162.707672,191.038544 
	C163.647675,192.467667 164.185806,193.889038 164.413727,195.703522 
	C154.468246,199.827744 144.537262,201.748657 134.168060,200.987228 
	C134.527069,199.103027 134.886078,197.218842 135.560822,195.152634 
z"/>
<path fill="#479095" opacity="1.000000" stroke="none" 
	d="
M84.010986,105.832596 
	C80.495361,107.610947 79.492157,108.600800 82.172356,115.393280 
	C80.353615,114.020035 78.534882,112.646790 76.369072,110.811333 
	C79.360176,104.528053 82.698349,98.706985 86.359573,92.784348 
	C88.503113,90.305611 88.804848,85.996613 93.735756,87.727707 
	C93.311981,86.883186 93.100433,86.461594 93.175797,85.858231 
	C95.348137,84.435715 97.233574,83.194984 99.119011,81.954254 
	C101.836266,86.413620 98.130768,87.593704 95.031090,89.865768 
	C90.134361,94.904221 84.852768,98.827667 84.010986,105.832596 
z"/>
<path fill="#BDCED1" opacity="1.000000" stroke="none" 
	d="
M118.633286,134.089996 
	C116.721001,140.526901 122.334267,152.999649 131.144104,156.788788 
	C139.058350,160.192734 150.636581,157.479874 154.304596,151.427612 
	C155.788681,149.377014 156.875107,147.745758 158.008255,145.736359 
	C158.700928,142.961197 159.346909,140.564148 160.315872,138.090363 
	C161.078644,137.970932 161.518417,137.928238 161.958206,137.885544 
	C163.646164,148.759918 153.339279,159.246445 141.225021,160.940567 
	C131.577759,162.289688 119.668564,153.631927 117.082466,143.322739 
	C116.408073,140.634338 116.345146,137.792542 116.002228,134.594711 
	C116.756004,134.117096 117.508934,134.065979 118.633286,134.089996 
z"/>
<path fill="#4C9297" opacity="1.000000" stroke="none" 
	d="
M134.097748,201.371185 
	C144.537262,201.748657 154.468246,199.827744 164.467987,196.043121 
	C165.362137,199.603348 165.038116,202.785385 160.189117,203.752136 
	C151.354111,204.362640 143.120224,205.204239 134.886337,206.045822 
	C134.600037,204.615601 134.313721,203.185379 134.097748,201.371185 
z"/>
<path fill="#2D888E" opacity="1.000000" stroke="none" 
	d="
M158.830490,207.989380 
	C157.793564,209.905579 156.756653,211.821777 154.953369,213.876328 
	C148.512650,214.339279 142.838287,214.663879 137.163940,214.988464 
	C136.766495,213.586395 136.369049,212.184341 136.398132,210.399628 
	C144.159943,209.341125 151.495209,208.665253 158.830490,207.989380 
z"/>
<path fill="#28878D" opacity="1.000000" stroke="none" 
	d="
M84.423141,191.887970 
	C77.412857,186.728622 73.033302,179.786133 70.012268,171.527328 
	C71.375450,172.544464 72.670303,174.007568 74.124992,175.289246 
	C76.738899,177.592255 79.245117,180.107193 82.161484,181.958267 
	C87.987236,185.655975 88.310829,186.315704 84.423141,191.887970 
z"/>
<path fill="#3E8D92" opacity="1.000000" stroke="none" 
	d="
M158.894226,207.646179 
	C151.495209,208.665253 144.159943,209.341125 136.351471,210.030121 
	C135.576050,208.952087 135.273804,207.860931 134.928955,206.407806 
	C143.120224,205.204239 151.354111,204.362640 159.816895,203.812195 
	C159.683197,205.169876 159.320587,206.236435 158.894226,207.646179 
z"/>
<path fill="#3C8C91" opacity="1.000000" stroke="none" 
	d="
M86.036522,92.885925 
	C82.698349,98.706985 79.360176,104.528053 76.027817,110.735023 
	C75.743607,111.555664 75.453583,111.990395 74.657112,112.760696 
	C73.834724,113.165077 73.518776,113.233894 73.202835,113.302704 
	C72.187454,112.734222 71.172073,112.165741 70.029449,111.322281 
	C70.939880,109.659943 72.068260,108.330589 72.999107,106.874931 
	C76.530136,101.353119 79.997223,95.790413 84.086136,90.231758 
	C85.134880,91.108986 85.585701,91.997452 86.036522,92.885925 
z"/>
<path fill="#73A2A7" opacity="1.000000" stroke="none" 
	d="
M159.969528,89.639435 
	C156.097076,89.249992 152.097244,88.451233 148.065918,87.871315 
	C144.998154,87.429993 141.890381,87.266640 138.340363,86.965485 
	C139.970215,84.770683 141.855682,82.314636 144.246765,80.539688 
	C145.257645,79.789299 148.409714,79.922874 148.750534,80.591530 
	C151.149155,85.297295 157.419815,84.867966 159.969528,89.639435 
z"/>
<path fill="#649BA0" opacity="1.000000" stroke="none" 
	d="
M122.123863,80.030594 
	C122.157402,83.571037 120.980713,85.268730 116.978889,86.296463 
	C112.965492,87.327164 109.544617,90.665077 105.187660,93.419395 
	C104.961388,92.748680 104.475990,91.309921 104.118454,89.172729 
	C110.205490,85.659729 116.164673,82.845161 122.123863,80.030594 
z"/>
<path fill="#4C9297" opacity="1.000000" stroke="none" 
	d="
M105.169220,82.008118 
	C105.522514,80.108604 105.875816,78.209106 106.948883,76.141998 
	C113.721100,73.986740 119.773552,71.999084 125.825996,70.011429 
	C125.610283,71.451813 125.394577,72.892204 124.622040,74.676979 
	C117.766541,77.350281 111.467880,79.679199 105.169220,82.008118 
z"/>
<path fill="#2D888E" opacity="1.000000" stroke="none" 
	d="
M106.898201,72.038139 
	C106.339622,71.903801 105.781044,71.769463 105.147102,71.018265 
	C112.987434,64.398048 122.196396,62.517525 131.834869,62.006271 
	C130.612106,63.149345 129.389328,64.292419 127.600952,65.720825 
	C120.322952,68.016823 113.610580,70.027481 106.898201,72.038139 
z"/>
<path fill="#57969B" opacity="1.000000" stroke="none" 
	d="
M105.003189,82.334938 
	C111.467880,79.679199 117.766541,77.350281 124.448166,75.014603 
	C124.125671,76.575821 123.420212,78.143806 122.419304,79.871201 
	C116.164673,82.845161 110.205490,85.659729 104.094055,88.789948 
	C104.240250,86.957649 104.538704,84.809708 105.003189,82.334938 
z"/>
<path fill="#21868B" opacity="1.000000" stroke="none" 
	d="
M131.898056,61.644718 
	C122.196396,62.517525 112.987434,64.398048 105.011032,70.759171 
	C103.970589,70.322578 102.990852,69.528221 102.018478,68.348572 
	C102.025848,67.963280 101.988785,67.993019 102.256393,67.937439 
	C102.737793,67.589355 102.951591,67.296844 103.165390,67.004333 
	C110.248535,64.420273 117.331673,61.836216 124.757034,59.099823 
	C127.405205,59.671341 130.614700,57.740654 131.898056,61.644718 
z"/>
<path fill="#198389" opacity="1.000000" stroke="none" 
	d="
M137.226852,215.352585 
	C142.838287,214.663879 148.512650,214.339279 154.648895,214.028809 
	C154.807938,215.116440 154.785980,216.405136 154.155762,217.227859 
	C150.584488,221.889984 140.000443,220.888565 137.226852,215.352585 
z"/>
<path fill="#3E8D92" opacity="1.000000" stroke="none" 
	d="
M106.941940,72.428543 
	C113.610580,70.027481 120.322952,68.016823 127.433716,66.007744 
	C127.265556,67.141655 126.699013,68.273979 125.979233,69.708870 
	C119.773552,71.999084 113.721100,73.986740 107.279930,75.966080 
	C106.922699,74.911476 106.954193,73.865211 106.941940,72.428543 
z"/>
<path fill="#57969B" opacity="1.000000" stroke="none" 
	d="
M84.349197,105.742592 
	C84.852768,98.827667 90.134361,94.904221 94.861847,90.182213 
	C95.708061,91.318565 96.368057,92.739647 96.721458,94.602203 
	C94.613319,97.306519 92.811760,99.569366 91.010208,101.832207 
	C88.902611,103.105667 86.795006,104.379128 84.349197,105.742592 
z"/>
<path fill="#A4BEC1" opacity="1.000000" stroke="none" 
	d="
M129.572937,100.958160 
	C133.377686,100.935493 136.797836,100.975052 140.604370,101.392059 
	C140.699112,103.166779 140.407455,104.564056 139.679932,105.973473 
	C135.220566,106.659935 131.197083,107.334259 127.173584,108.008583 
	C127.845169,105.679184 128.516754,103.349785 129.572937,100.958160 
z"/>
<path fill="#AFC5C8" opacity="1.000000" stroke="none" 
	d="
M127.106850,108.371758 
	C131.197083,107.334259 135.220566,106.659935 140.000519,106.143158 
	C140.116211,108.202034 139.475433,110.103378 138.428589,112.003098 
	C135.640915,112.320076 133.259323,112.638680 130.877716,112.957275 
	C129.598511,111.549828 128.319305,110.142380 127.106850,108.371758 
z"/>
<path fill="#85ACB0" opacity="1.000000" stroke="none" 
	d="
M104.572243,166.126633 
	C109.557373,169.697510 114.234604,173.428696 118.959465,177.496552 
	C111.149437,178.246567 106.597397,174.681473 104.572243,166.126633 
z"/>
<path fill="#A9C2C5" opacity="1.000000" stroke="none" 
	d="
M117.892624,119.040367 
	C116.744049,120.797989 115.595467,122.555611 114.446892,124.313232 
	C113.871178,124.216461 113.295464,124.119690 112.719742,124.022926 
	C112.564957,122.134460 111.792976,118.830353 112.354752,118.585434 
	C116.238235,116.892281 115.937889,112.235550 119.432961,109.221939 
	C120.075653,111.624352 120.542122,113.368034 120.892403,115.801147 
	C119.815018,117.340508 118.853821,118.190437 117.892624,119.040367 
z"/>
<path fill="#4C9297" opacity="1.000000" stroke="none" 
	d="
M139.383087,68.485718 
	C141.819321,67.722626 144.931976,66.129250 146.035751,67.021370 
	C149.502655,69.823479 144.388077,70.606178 143.955902,72.705864 
	C143.763718,73.639572 143.401581,74.639008 142.812744,75.360687 
	C142.274963,76.019798 141.327042,76.344261 140.559875,76.816208 
	C140.095062,76.042259 139.318100,75.302658 139.228363,74.487419 
	C139.021591,72.608719 139.148666,70.693283 139.383087,68.485718 
z"/>
<path fill="#B8CBCE" opacity="1.000000" stroke="none" 
	d="
M117.945312,119.438690 
	C118.853821,118.190437 119.815018,117.340508 120.909485,116.193466 
	C122.364677,117.669174 123.686592,119.442001 125.059090,121.582611 
	C123.574867,123.222061 122.040070,124.493721 120.201706,125.903824 
	C118.793900,125.991943 117.689659,125.941620 116.820122,125.901993 
	C117.227470,123.804512 117.612732,121.820763 117.945312,119.438690 
z"/>
<path fill="#479095" opacity="1.000000" stroke="none" 
	d="
M169.076294,72.453705 
	C169.665039,71.626846 170.014954,71.085388 170.364700,70.543823 
	C174.642319,75.116333 175.041275,79.443558 170.036728,82.340355 
	C169.590256,78.766022 169.213867,75.752571 169.076294,72.453705 
z"/>
<path fill="#3C8C91" opacity="1.000000" stroke="none" 
	d="
M99.192978,81.626556 
	C97.233574,83.194984 95.348137,84.435715 92.786972,85.842606 
	C91.076180,85.951820 90.041115,85.894882 89.006050,85.837936 
	C91.825783,82.966812 94.645508,80.095680 97.784927,77.085472 
	C98.492065,78.397217 98.879509,79.848030 99.192978,81.626556 
z"/>
<path fill="#21868B" opacity="1.000000" stroke="none" 
	d="
M172.831696,204.983749 
	C172.545853,206.537598 172.589706,208.267700 171.880096,209.594986 
	C171.190689,210.884491 169.728516,211.760849 168.605682,212.818634 
	C167.735901,211.492294 166.727249,210.231125 166.060013,208.809662 
	C165.765091,208.181381 166.162140,207.228271 166.949219,206.199188 
	C169.379501,205.645081 171.105591,205.314407 172.831696,204.983749 
z"/>
<path fill="#B8CBCE" opacity="1.000000" stroke="none" 
	d="
M130.555267,113.126022 
	C133.259323,112.638680 135.640915,112.320076 138.500366,112.365204 
	C137.693115,114.469193 136.408020,116.209457 135.122925,117.949722 
	C134.067139,117.967056 133.011353,117.984390 131.559586,118.004997 
	C130.853348,116.437103 130.543091,114.865936 130.555267,113.126022 
z"/>
<path fill="#649BA0" opacity="1.000000" stroke="none" 
	d="
M91.359123,101.905304 
	C92.811760,99.569366 94.613319,97.306519 96.767822,95.000526 
	C97.839523,97.402870 98.558258,99.848366 99.377251,102.635010 
	C96.438942,102.383446 94.073494,102.180923 91.359123,101.905304 
z"/>
<path fill="#3C8C91" opacity="1.000000" stroke="none" 
	d="
M172.991882,204.667496 
	C171.105591,205.314407 169.379501,205.645081 167.268951,205.969131 
	C168.565063,203.118210 170.245621,200.273911 171.926163,197.429611 
	C172.764755,197.768997 173.603333,198.108368 174.441910,198.447739 
	C174.011978,200.415573 173.582031,202.383408 172.991882,204.667496 
z"/>
<path fill="#198389" opacity="1.000000" stroke="none" 
	d="
M175.801117,64.005455 
	C175.742706,64.525909 175.688309,64.697090 175.574631,64.806976 
	C174.191620,66.143982 174.702805,70.358047 171.340378,68.335854 
	C170.256851,67.684204 170.771988,64.374367 170.413712,60.904495 
	C173.277679,62.358513 174.527618,62.993107 175.801117,64.005455 
z"/>
<path fill="#479095" opacity="1.000000" stroke="none" 
	d="
M73.196388,113.677162 
	C73.518776,113.233894 73.834724,113.165077 74.630409,113.024628 
	C75.544495,113.636124 75.978836,114.319237 76.413177,115.002357 
	C75.338768,114.685448 74.264351,114.368530 73.196388,113.677162 
z"/>
<path fill="#118187" opacity="1.000000" stroke="none" 
	d="
M507.033203,208.843018 
	C504.639404,208.888153 502.245575,208.933289 499.217834,208.619080 
	C493.138000,206.360580 490.027344,202.678482 490.021881,197.644241 
	C489.982147,161.205597 489.968109,124.766830 490.041168,88.328293 
	C490.050415,83.718307 492.087982,79.983208 496.600433,78.214546 
	C498.961731,77.289024 501.504974,76.827721 503.966064,76.156754 
	C507.683563,76.111626 511.401093,76.066505 515.804443,76.396889 
	C524.118530,77.344490 528.641968,81.449623 530.982605,89.265083 
	C536.057068,106.208977 541.307556,123.100250 546.508606,140.006104 
	C549.436157,149.522156 552.408508,159.024429 555.743774,169.766724 
	C558.069458,162.388016 560.044189,156.364777 561.866455,150.295776 
	C567.329712,132.100632 572.597595,113.845535 578.218872,95.699692 
	C580.944214,86.902023 582.775330,76.993713 594.966125,76.156784 
	C598.683594,76.111649 602.401123,76.066513 606.806519,76.398010 
	C617.213989,76.778381 621.216553,82.873619 621.133362,91.629822 
	C620.807190,125.951019 620.900330,160.277679 621.082642,194.600998 
	C621.119934,201.615723 618.126343,206.050247 612.033264,208.843033 
	C609.639465,208.888153 607.245667,208.933273 604.217896,208.619080 
	C597.704102,206.210220 595.010315,202.619186 595.006531,196.654419 
	C594.990845,172.042435 595.000000,147.430450 595.000000,122.818474 
	C595.000000,121.532692 595.000000,120.246918 595.000000,118.961136 
	C593.345093,121.874199 592.555481,124.847176 591.610718,127.770035 
	C584.260132,150.511169 576.692810,173.184875 569.634094,196.015961 
	C567.768738,202.049286 565.291382,206.806717 559.033264,208.843048 
	C556.968628,208.888168 554.903992,208.933304 552.202026,208.615662 
	C546.919189,207.739746 544.256226,204.904144 542.885071,200.683899 
	C537.576294,184.343079 532.299988,167.991714 527.023254,151.640503 
	C523.585388,140.987381 520.167725,130.327744 516.740967,119.671013 
	C516.000000,144.786102 515.871277,169.712891 516.082520,194.636765 
	C516.141907,201.641907 513.098450,206.049652 507.033203,208.843018 
z"/>
<path fill="#118187" opacity="1.000000" stroke="none" 
	d="
M709.033936,208.843246 
	C702.321228,208.888489 695.608459,208.933716 688.192383,208.598511 
	C664.807800,205.207291 649.282837,192.663773 639.986694,172.139191 
	C633.002563,156.719269 632.169250,140.439026 636.230835,124.341393 
	C641.583130,103.128044 654.286804,87.555626 675.444824,80.117165 
	C681.055786,78.144539 687.113403,77.442284 692.965942,76.156723 
	C696.020874,76.111641 699.075867,76.066559 702.840820,76.406509 
	C724.782288,77.472389 740.923828,87.233742 752.233398,104.866791 
	C762.451782,120.798439 763.795227,138.527542 761.104126,156.747971 
	C758.443359,174.762833 749.273499,188.797882 734.348022,199.131485 
	C726.701599,204.425461 717.893066,206.703354 709.033936,208.843246 
M700.369080,102.000000 
	C685.152344,101.442589 672.836182,106.681160 665.197449,120.375206 
	C658.767822,131.901596 658.525024,144.204056 661.881409,156.715164 
	C663.976379,164.524551 667.617188,171.333038 674.427368,176.156921 
	C684.547119,183.325119 695.702087,185.585709 707.695984,182.878616 
	C717.581726,180.647339 725.554626,175.277069 730.806702,166.439636 
	C737.060120,155.917328 738.295837,144.509491 735.952026,132.674225 
	C732.195435,113.705124 719.658264,103.450058 700.369080,102.000000 
z"/>
<path fill="#000000" opacity="1.000000" stroke="none" 
	d="
M709.497070,208.916016 
	C717.893066,206.703354 726.701599,204.425461 734.348022,199.131485 
	C749.273499,188.797882 758.443359,174.762833 761.104126,156.747971 
	C763.795227,138.527542 762.451782,120.798439 752.233398,104.866791 
	C740.923828,87.233742 724.782288,77.472389 703.294250,76.473602 
	C736.038147,76.107513 769.038513,76.059364 802.502441,76.083969 
	C797.889954,77.794296 792.591187,78.950768 787.786926,81.175163 
	C779.249268,85.128113 774.055664,91.943375 771.768799,101.268616 
	C769.577271,110.205452 768.398682,119.296700 774.219177,126.777161 
	C778.651367,132.473312 784.747253,137.188309 790.853027,141.197495 
	C800.714966,147.673111 811.302063,153.032837 821.369385,159.211792 
	C826.995911,162.665131 829.773804,170.406723 827.838684,175.314056 
	C825.321228,181.698456 819.317993,181.662292 814.145508,181.856735 
	C802.174011,182.306747 790.173950,181.977463 778.185608,182.009079 
	C771.702454,182.026184 769.007507,184.804718 769.000610,191.334442 
	C768.996948,194.831070 768.565125,198.403015 769.152832,201.797958 
	C769.547241,204.076538 771.390625,206.104294 772.774902,208.544037 
	C751.962769,208.892120 730.961548,208.940445 709.497070,208.916016 
z"/>
<path fill="#000000" opacity="1.000000" stroke="none" 
	d="
M692.502808,76.083984 
	C687.113403,77.442284 681.055786,78.144539 675.444824,80.117165 
	C654.286804,87.555626 641.583130,103.128044 636.230835,124.341393 
	C632.169250,140.439026 633.002563,156.719269 639.986694,172.139191 
	C649.282837,192.663773 664.807800,205.207291 687.725708,208.531158 
	C662.961792,208.892426 637.961121,208.940598 612.496826,208.915894 
	C618.126343,206.050247 621.119934,201.615723 621.082642,194.600998 
	C620.900330,160.277679 620.807190,125.951019 621.133362,91.629822 
	C621.216553,82.873619 617.213989,76.778381 607.265869,76.465225 
	C635.371460,76.107613 663.705505,76.059425 692.502808,76.083984 
z"/>
<path fill="#000000" opacity="1.000000" stroke="none" 
	d="
M503.502930,76.084000 
	C501.504974,76.827721 498.961731,77.289024 496.600433,78.214546 
	C492.087982,79.983208 490.050415,83.718307 490.041168,88.328293 
	C489.968109,124.766830 489.982147,161.205597 490.021881,197.644241 
	C490.027344,202.678482 493.138000,206.360580 498.773682,208.551849 
	C474.295929,208.892242 449.628448,208.940506 424.497467,208.916016 
	C434.364044,206.780899 444.264587,203.729599 452.747894,197.090637 
	C466.499054,186.329147 474.420807,172.337280 477.070618,155.078720 
	C478.933319,142.946381 478.466278,130.978516 474.617737,119.440018 
	C466.262604,94.390091 446.421631,78.014084 419.289856,76.472794 
	C447.038330,76.107544 475.039062,76.059387 503.502930,76.084000 
z"/>
<path fill="#000000" opacity="1.000000" stroke="none" 
	d="
M594.502930,76.084015 
	C582.775330,76.993713 580.944214,86.902023 578.218872,95.699692 
	C572.597595,113.845535 567.329712,132.100632 561.866455,150.295776 
	C560.044189,156.364777 558.069458,162.388016 555.743774,169.766724 
	C552.408508,159.024429 549.436157,149.522156 546.508606,140.006104 
	C541.307556,123.100250 536.057068,106.208977 530.982605,89.265083 
	C528.641968,81.449623 524.118530,77.344490 516.263855,76.464096 
	C542.038147,76.107613 568.039001,76.059425 594.502930,76.084015 
z"/>
<path fill="#000000" opacity="1.000000" stroke="none" 
	d="
M559.496460,208.915894 
	C565.291382,206.806717 567.768738,202.049286 569.634094,196.015961 
	C576.692810,173.184875 584.260132,150.511169 591.610718,127.770035 
	C592.555481,124.847176 593.345093,121.874199 595.000000,118.961136 
	C595.000000,120.246918 595.000000,121.532692 595.000000,122.818474 
	C595.000000,147.430450 594.990845,172.042435 595.006531,196.654419 
	C595.010315,202.619186 597.704102,206.210220 603.773682,208.551865 
	C589.295532,208.892242 574.627563,208.940491 559.496460,208.915894 
z"/>
<path fill="#000000" opacity="1.000000" stroke="none" 
	d="
M507.496399,208.915894 
	C513.098450,206.049652 516.141907,201.641907 516.082520,194.636765 
	C515.871277,169.712891 516.000000,144.786102 516.740967,119.671013 
	C520.167725,130.327744 523.585388,140.987381 527.023254,151.640503 
	C532.299988,167.991714 537.576294,184.343079 542.885071,200.683899 
	C544.256226,204.904144 546.919189,207.739746 551.763916,208.548492 
	C537.295227,208.892319 522.627441,208.940536 507.496399,208.915894 
z"/>
<path fill="#000000" opacity="1.000000" stroke="none" 
	d="
M433.112000,179.336746 
	C426.140991,181.062668 419.423920,183.880875 412.765015,183.749634 
	C391.783844,183.336121 377.739990,169.276520 375.790070,148.799469 
	C374.983307,140.327423 375.802887,132.424530 378.776611,124.745102 
	C384.002960,111.248512 394.362244,103.680763 408.500427,102.164711 
	C427.786560,100.096642 444.688477,108.354630 450.100616,127.802261 
	C454.637634,144.105209 453.619537,160.276825 440.894653,173.499069 
	C438.762848,175.714142 435.911469,177.236740 433.112000,179.336746 
z"/>
<path fill="#97B6B9" opacity="1.000000" stroke="none" 
	d="
M171.341980,159.968170 
	C171.773956,159.024734 172.546066,158.046402 173.658478,157.033752 
	C173.226562,157.977386 172.454346,158.955338 171.341980,159.968170 
z"/>
<path fill="#97B6B9" opacity="1.000000" stroke="none" 
	d="
M169.320862,162.959244 
	C169.452744,162.361282 169.905487,161.721954 170.679138,161.041321 
	C170.547256,161.639297 170.094482,162.278595 169.320862,162.959244 
z"/>
<path fill="#000000" opacity="1.000000" stroke="none" 
	d="
M102.979950,66.759415 
	C102.951591,67.296844 102.737793,67.589355 102.259964,67.961006 
	C102.262131,67.531593 102.528320,67.023041 102.979950,66.759415 
z"/>
<path fill="#9DBABD" opacity="1.000000" stroke="none" 
	d="
M143.162415,101.003799 
	C163.056351,101.082642 180.614349,123.082359 176.008057,142.584488 
	C175.830551,142.998962 175.662338,142.999146 175.241669,142.999451 
	C174.090942,140.553696 173.192673,138.107834 172.146271,135.330368 
	C171.998169,134.998779 172.000000,135.000000 172.288147,134.724792 
	C172.183624,130.916428 172.694962,126.947670 171.239380,123.926628 
	C165.414093,111.836357 156.014679,104.196388 142.145233,102.710228 
	C142.471069,101.944557 142.816742,101.474182 143.162415,101.003799 
z"/>
<path fill="#A4BEC1" opacity="1.000000" stroke="none" 
	d="
M142.165054,103.005516 
	C156.014679,104.196388 165.414093,111.836357 171.239380,123.926628 
	C172.694962,126.947670 172.183624,130.916428 172.287231,134.724518 
	C169.737701,130.471069 167.560120,125.898941 165.197754,121.424362 
	C161.427231,114.282532 155.097809,110.418205 146.868317,108.047440 
	C142.316437,108.283630 141.886429,105.923065 142.165054,103.005516 
z"/>
<path fill="#000000" opacity="1.000000" stroke="none" 
	d="
M142.145233,102.710228 
	C141.886429,105.923065 142.316437,108.283630 146.493317,108.024292 
	C146.888321,108.038956 146.973587,108.462608 146.967377,108.678604 
	C146.519653,108.936394 146.078125,108.978203 145.050232,109.055145 
	C144.364853,109.389229 144.265839,109.688171 144.166809,109.987114 
	C144.400848,110.454140 144.634872,110.921165 144.876984,111.672241 
	C143.930161,112.742371 142.975266,113.528442 142.018158,114.979851 
	C141.972305,116.081726 141.928680,116.518272 141.885056,116.954803 
	C139.893753,117.301643 137.902451,117.648491 135.517029,117.972527 
	C136.408020,116.209457 137.693115,114.469193 138.906433,112.366821 
	C139.475433,110.103378 140.116211,108.202034 140.436401,106.131012 
	C140.407455,104.564056 140.699112,103.166779 141.050720,101.401047 
	C141.720184,100.850044 142.329681,100.667511 143.050797,100.744400 
	C142.816742,101.474182 142.471069,101.944557 142.145233,102.710228 
z"/>
<path fill="#BDCED1" opacity="1.000000" stroke="none" 
	d="
M142.260025,117.002106 
	C141.928680,116.518272 141.972305,116.081726 142.090088,115.324112 
	C152.168671,115.232391 162.224686,124.923737 160.849884,133.659698 
	C159.510864,132.852936 158.781021,131.984573 158.051178,131.116226 
	C156.443710,122.557281 149.908508,119.398773 142.260025,117.002106 
z"/>
<path fill="#000000" opacity="1.000000" stroke="none" 
	d="
M158.135757,131.432037 
	C158.781021,131.984573 159.510864,132.852936 160.559357,133.880188 
	C161.247635,135.089279 161.617264,136.139465 161.972549,137.537598 
	C161.518417,137.928238 161.078644,137.970932 159.978424,137.930862 
	C157.542725,137.952545 155.767456,138.056976 153.662079,138.011169 
	C149.120529,135.789154 152.402252,133.398331 153.044952,131.119873 
	C156.111160,135.047974 156.788956,135.130219 158.135757,131.432037 
z"/>
<path fill="#D2DDDE" opacity="1.000000" stroke="none" 
	d="
M153.001373,130.759125 
	C152.402252,133.398331 149.120529,135.789154 153.665375,138.428024 
	C153.996536,140.940659 153.994308,142.886200 153.590820,144.903534 
	C152.145477,145.218277 150.762924,145.122284 150.118774,145.765625 
	C147.902344,147.979218 146.334900,147.377869 145.250946,144.995117 
	C149.168259,141.852371 150.530640,136.101410 148.261475,132.929688 
	C145.740311,129.405746 142.273727,126.409737 137.912201,128.215439 
	C134.858368,129.479752 132.632751,132.744583 129.895813,135.434753 
	C127.838516,136.779816 125.922668,137.806122 124.006821,138.832413 
	C123.702621,128.918396 129.013565,124.185089 136.053650,122.232056 
	C141.563049,120.703644 150.846405,123.516762 153.001373,130.759125 
z"/>
<path fill="#000000" opacity="1.000000" stroke="none" 
	d="
M144.876678,145.045349 
	C146.334900,147.377869 147.902344,147.979218 150.118774,145.765625 
	C150.762924,145.122284 152.145477,145.218277 153.876480,145.039917 
	C154.519699,149.399200 156.810379,145.839920 157.961548,146.114487 
	C156.875107,147.745758 155.788681,149.377014 154.348450,151.086563 
	C152.596649,150.769989 151.198639,150.375137 149.250900,149.600647 
	C146.063309,148.907608 142.962387,146.020096 141.471680,150.693573 
	C137.825165,148.563950 132.473587,148.376114 134.224335,141.298462 
	C130.565643,142.316040 127.760239,143.096298 124.954842,143.876556 
	C123.919563,143.478210 122.884285,143.079849 121.983032,142.361435 
	C122.564529,141.052963 123.012001,140.064529 123.733147,138.954254 
	C125.922668,137.806122 127.838516,136.779816 130.251266,135.507675 
	C130.965775,137.195633 131.183365,139.129456 131.400970,141.063263 
	C131.746353,140.979446 132.091721,140.895645 132.437103,140.811829 
	C132.942856,139.245758 133.448608,137.679703 134.085052,136.432739 
	C134.865799,138.910416 135.515839,141.068954 136.414978,144.054718 
	C136.934586,143.716599 138.117676,142.920670 139.327194,142.167175 
	C140.498016,141.437820 141.696030,140.752151 142.932800,140.405975 
	C143.614563,142.191574 144.245621,143.618454 144.876678,145.045349 
z"/>
<path fill="#AFC5C8" opacity="1.000000" stroke="none" 
	d="
M144.342743,109.893784 
	C144.265839,109.688171 144.364853,109.389229 144.725372,109.128761 
	C144.894073,109.425095 144.738007,109.636169 144.342743,109.893784 
z"/>
<path fill="#000000" opacity="1.000000" stroke="none" 
	d="
M88.645935,85.892776 
	C90.041115,85.894882 91.076180,85.951820 92.500061,86.024384 
	C93.100433,86.461594 93.311981,86.883186 93.735756,87.727707 
	C88.804848,85.996613 88.503113,90.305611 86.359573,92.784348 
	C85.585701,91.997452 85.134880,91.108986 84.399765,90.087898 
	C83.878609,88.767715 83.641754,87.580139 83.404892,86.392570 
	C85.031868,86.244247 86.658836,86.095932 88.645935,85.892776 
z"/>
<path fill="#CFDBDC" opacity="1.000000" stroke="none" 
	d="
M124.970230,144.251129 
	C127.760239,143.096298 130.565643,142.316040 134.224335,141.298462 
	C132.473587,148.376114 137.825165,148.563950 141.471680,150.693573 
	C142.962387,146.020096 146.063309,148.907608 148.873596,149.551682 
	C145.908051,154.940063 140.797180,154.488937 136.188034,153.732697 
	C131.035294,152.887268 126.576805,150.289169 124.970230,144.251129 
z"/>
<path fill="#C5D4D6" opacity="1.000000" stroke="none" 
	d="
M158.008255,145.736359 
	C156.810379,145.839920 154.519699,149.399200 154.277771,144.968109 
	C153.994308,142.886200 153.996536,140.940659 153.995468,138.578278 
	C155.767456,138.056976 157.542725,137.952545 159.655457,138.007599 
	C159.346909,140.564148 158.700928,142.961197 158.008255,145.736359 
z"/>
<path fill="#000000" opacity="1.000000" stroke="none" 
	d="
M700.835083,102.000000 
	C719.658264,103.450058 732.195435,113.705124 735.952026,132.674225 
	C738.295837,144.509491 737.060120,155.917328 730.806702,166.439636 
	C725.554626,175.277069 717.581726,180.647339 707.695984,182.878616 
	C695.702087,185.585709 684.547119,183.325119 674.427368,176.156921 
	C667.617188,171.333038 663.976379,164.524551 661.881409,156.715164 
	C658.525024,144.204056 658.767822,131.901596 665.197449,120.375206 
	C672.836182,106.681160 685.152344,101.442589 700.835083,102.000000 
z"/>
<path fill="#DCE5E6" opacity="1.000000" stroke="none" 
	d="
M145.250946,144.995117 
	C144.245621,143.618454 143.614563,142.191574 143.304169,140.333374 
	C144.044189,139.442871 144.914001,138.773026 144.813034,138.557098 
	C143.834488,136.464218 143.196472,133.574921 141.492630,132.592026 
	C138.026840,130.592697 135.704269,133.232147 133.954361,136.113632 
	C133.448608,137.679703 132.942856,139.245758 132.437103,140.811829 
	C132.091721,140.895645 131.746353,140.979446 131.400970,141.063263 
	C131.183365,139.129456 130.965775,137.195633 130.392700,135.188904 
	C132.632751,132.744583 134.858368,129.479752 137.912201,128.215439 
	C142.273727,126.409737 145.740311,129.405746 148.261475,132.929688 
	C150.530640,136.101410 149.168259,141.852371 145.250946,144.995117 
z"/>
<path fill="#E5EBEC" opacity="1.000000" stroke="none" 
	d="
M134.085052,136.432739 
	C135.704269,133.232147 138.026840,130.592697 141.492630,132.592026 
	C143.196472,133.574921 143.834488,136.464218 144.813034,138.557098 
	C144.914001,138.773026 144.044189,139.442871 143.253464,139.974686 
	C141.696030,140.752151 140.498016,141.437820 139.327194,142.167175 
	C138.117676,142.920670 136.934586,143.716599 136.414978,144.054718 
	C135.515839,141.068954 134.865799,138.910416 134.085052,136.432739 
z"/>
</svg>